<?xml version="1.0" encoding="utf-8" standalone="no"?>
<!DOCTYPE svg PUBLIC "-//W3C//DTD SVG 1.1//EN"
  "http://www.w3.org/Graphics/SVG/1.1/DTD/svg11.dtd">
<!-- Created with matplotlib (https://matplotlib.org/) -->
<svg height="576pt" version="1.1" viewBox="0 0 720 576" width="720pt" xmlns="http://www.w3.org/2000/svg" xmlns:xlink="http://www.w3.org/1999/xlink">
 <metadata>
  <rdf:RDF xmlns:cc="http://creativecommons.org/ns#" xmlns:dc="http://purl.org/dc/elements/1.1/" xmlns:rdf="http://www.w3.org/1999/02/22-rdf-syntax-ns#">
   <cc:Work>
    <dc:type rdf:resource="http://purl.org/dc/dcmitype/StillImage"/>
    <dc:date>2023-01-02T21:10:33.558016</dc:date>
    <dc:format>image/svg+xml</dc:format>
    <dc:creator>
     <cc:Agent>
      <dc:title>Matplotlib v3.3.1, https://matplotlib.org/</dc:title>
     </cc:Agent>
    </dc:creator>
   </cc:Work>
  </rdf:RDF>
 </metadata>
 <defs>
  <style type="text/css">*{stroke-linecap:butt;stroke-linejoin:round;}</style>
 </defs>
 <g id="figure_1">
  <g id="patch_1">
   <path d="M 0 576 
L 720 576 
L 720 0 
L 0 0 
z
" style="fill:none;"/>
  </g>
  <g id="axes_1">
   <g id="patch_2">
    <path d="M 90 504 
L 648 504 
L 648 69.12 
L 90 69.12 
z
" style="fill:#ffffff;"/>
   </g>
   <g id="PathCollection_1">
    <defs>
     <path d="M 0 -5 
L -4.755283 -1.545085 
L -2.938926 4.045085 
L 2.938926 4.045085 
L 4.755283 -1.545085 
z
" id="mf77d046b5f" style="stroke:#1f77b4;"/>
    </defs>
    <g clip-path="url(#p235175afc6)">
     <use style="fill:#1f77b4;stroke:#1f77b4;" x="284.683047" xlink:href="#mf77d046b5f" y="464.47491"/>
     <use style="fill:#1f77b4;stroke:#1f77b4;" x="157.522113" xlink:href="#mf77d046b5f" y="459.482267"/>
     <use style="fill:#1f77b4;stroke:#1f77b4;" x="115.363636" xlink:href="#mf77d046b5f" y="87.946424"/>
     <use style="fill:#1f77b4;stroke:#1f77b4;" x="157.522113" xlink:href="#mf77d046b5f" y="459.482267"/>
     <use style="fill:#1f77b4;stroke:#1f77b4;" x="284.683047" xlink:href="#mf77d046b5f" y="464.47491"/>
     <use style="fill:#1f77b4;stroke:#1f77b4;" x="157.522113" xlink:href="#mf77d046b5f" y="459.482267"/>
     <use style="fill:#1f77b4;stroke:#1f77b4;" x="284.683047" xlink:href="#mf77d046b5f" y="464.47491"/>
     <use style="fill:#1f77b4;stroke:#1f77b4;" x="115.363636" xlink:href="#mf77d046b5f" y="87.946424"/>
     <use style="fill:#1f77b4;stroke:#1f77b4;" x="115.363636" xlink:href="#mf77d046b5f" y="87.946424"/>
     <use style="fill:#1f77b4;stroke:#1f77b4;" x="115.363636" xlink:href="#mf77d046b5f" y="87.946424"/>
     <use style="fill:#1f77b4;stroke:#1f77b4;" x="157.522113" xlink:href="#mf77d046b5f" y="459.482267"/>
     <use style="fill:#1f77b4;stroke:#1f77b4;" x="157.522113" xlink:href="#mf77d046b5f" y="459.482267"/>
     <use style="fill:#1f77b4;stroke:#1f77b4;" x="157.522113" xlink:href="#mf77d046b5f" y="459.482267"/>
     <use style="fill:#1f77b4;stroke:#1f77b4;" x="115.363636" xlink:href="#mf77d046b5f" y="87.946424"/>
     <use style="fill:#1f77b4;stroke:#1f77b4;" x="284.683047" xlink:href="#mf77d046b5f" y="464.47491"/>
     <use style="fill:#1f77b4;stroke:#1f77b4;" x="284.683047" xlink:href="#mf77d046b5f" y="464.47491"/>
     <use style="fill:#1f77b4;stroke:#1f77b4;" x="284.683047" xlink:href="#mf77d046b5f" y="464.47491"/>
     <use style="fill:#1f77b4;stroke:#1f77b4;" x="115.363636" xlink:href="#mf77d046b5f" y="87.946424"/>
     <use style="fill:#1f77b4;stroke:#1f77b4;" x="157.522113" xlink:href="#mf77d046b5f" y="459.482267"/>
     <use style="fill:#1f77b4;stroke:#1f77b4;" x="284.683047" xlink:href="#mf77d046b5f" y="464.47491"/>
    </g>
   </g>
   <g id="PathCollection_2">
    <defs>
     <path d="M 0 0 
L 5 0 
M 0 0 
L -2.5 -4 
M 0 0 
L -2.5 4 
" id="mf4295b0897" style="stroke:#ff7f0e;stroke-width:1.5;"/>
    </defs>
    <g clip-path="url(#p235175afc6)">
     <use style="fill:#ff7f0e;stroke:#ff7f0e;stroke-width:1.5;" x="242.181818" xlink:href="#mf4295b0897" y="448.248821"/>
     <use style="fill:#ff7f0e;stroke:#ff7f0e;stroke-width:1.5;" x="157.522113" xlink:href="#mf4295b0897" y="286.820033"/>
     <use style="fill:#ff7f0e;stroke:#ff7f0e;stroke-width:1.5;" x="284.683047" xlink:href="#mf4295b0897" y="451.161196"/>
     <use style="fill:#ff7f0e;stroke:#ff7f0e;stroke-width:1.5;" x="284.683047" xlink:href="#mf4295b0897" y="451.161196"/>
     <use style="fill:#ff7f0e;stroke:#ff7f0e;stroke-width:1.5;" x="326.841523" xlink:href="#mf4295b0897" y="454.073571"/>
     <use style="fill:#ff7f0e;stroke:#ff7f0e;stroke-width:1.5;" x="326.841523" xlink:href="#mf4295b0897" y="454.073571"/>
     <use style="fill:#ff7f0e;stroke:#ff7f0e;stroke-width:1.5;" x="200.023342" xlink:href="#mf4295b0897" y="447.00066"/>
     <use style="fill:#ff7f0e;stroke:#ff7f0e;stroke-width:1.5;" x="200.023342" xlink:href="#mf4295b0897" y="447.00066"/>
     <use style="fill:#ff7f0e;stroke:#ff7f0e;stroke-width:1.5;" x="326.841523" xlink:href="#mf4295b0897" y="454.073571"/>
     <use style="fill:#ff7f0e;stroke:#ff7f0e;stroke-width:1.5;" x="411.501229" xlink:href="#mf4295b0897" y="459.482267"/>
     <use style="fill:#ff7f0e;stroke:#ff7f0e;stroke-width:1.5;" x="284.683047" xlink:href="#mf4295b0897" y="451.161196"/>
     <use style="fill:#ff7f0e;stroke:#ff7f0e;stroke-width:1.5;" x="157.522113" xlink:href="#mf4295b0897" y="286.820033"/>
     <use style="fill:#ff7f0e;stroke:#ff7f0e;stroke-width:1.5;" x="200.023342" xlink:href="#mf4295b0897" y="447.00066"/>
     <use style="fill:#ff7f0e;stroke:#ff7f0e;stroke-width:1.5;" x="242.181818" xlink:href="#mf4295b0897" y="448.248821"/>
     <use style="fill:#ff7f0e;stroke:#ff7f0e;stroke-width:1.5;" x="284.683047" xlink:href="#mf4295b0897" y="451.161196"/>
     <use style="fill:#ff7f0e;stroke:#ff7f0e;stroke-width:1.5;" x="242.181818" xlink:href="#mf4295b0897" y="448.248821"/>
     <use style="fill:#ff7f0e;stroke:#ff7f0e;stroke-width:1.5;" x="157.522113" xlink:href="#mf4295b0897" y="286.820033"/>
     <use style="fill:#ff7f0e;stroke:#ff7f0e;stroke-width:1.5;" x="242.181818" xlink:href="#mf4295b0897" y="448.248821"/>
     <use style="fill:#ff7f0e;stroke:#ff7f0e;stroke-width:1.5;" x="157.522113" xlink:href="#mf4295b0897" y="286.820033"/>
     <use style="fill:#ff7f0e;stroke:#ff7f0e;stroke-width:1.5;" x="326.841523" xlink:href="#mf4295b0897" y="454.073571"/>
    </g>
   </g>
   <g id="PathCollection_3">
    <defs>
     <path d="M 0 5 
C 1.326016 5 2.597899 4.473168 3.535534 3.535534 
C 4.473168 2.597899 5 1.326016 5 0 
C 5 -1.326016 4.473168 -2.597899 3.535534 -3.535534 
C 2.597899 -4.473168 1.326016 -5 0 -5 
C -1.326016 -5 -2.597899 -4.473168 -3.535534 -3.535534 
C -4.473168 -2.597899 -5 -1.326016 -5 0 
C -5 1.326016 -4.473168 2.597899 -3.535534 3.535534 
C -2.597899 4.473168 -1.326016 5 0 5 
z
" id="mba4ba2f313" style="stroke:#2ca02c;"/>
    </defs>
    <g clip-path="url(#p235175afc6)">
     <use style="fill:#2ca02c;stroke:#2ca02c;" x="622.636364" xlink:href="#mba4ba2f313" y="459.482267"/>
     <use style="fill:#2ca02c;stroke:#2ca02c;" x="622.636364" xlink:href="#mba4ba2f313" y="459.482267"/>
     <use style="fill:#2ca02c;stroke:#2ca02c;" x="242.181818" xlink:href="#mba4ba2f313" y="447.00066"/>
     <use style="fill:#2ca02c;stroke:#2ca02c;" x="326.841523" xlink:href="#mba4ba2f313" y="452.409357"/>
     <use style="fill:#2ca02c;stroke:#2ca02c;" x="157.522113" xlink:href="#mba4ba2f313" y="328.841445"/>
     <use style="fill:#2ca02c;stroke:#2ca02c;" x="622.636364" xlink:href="#mba4ba2f313" y="459.482267"/>
     <use style="fill:#2ca02c;stroke:#2ca02c;" x="157.522113" xlink:href="#mba4ba2f313" y="328.841445"/>
     <use style="fill:#2ca02c;stroke:#2ca02c;" x="326.841523" xlink:href="#mba4ba2f313" y="452.409357"/>
     <use style="fill:#2ca02c;stroke:#2ca02c;" x="326.841523" xlink:href="#mba4ba2f313" y="452.409357"/>
     <use style="fill:#2ca02c;stroke:#2ca02c;" x="200.023342" xlink:href="#mba4ba2f313" y="420.373231"/>
     <use style="fill:#2ca02c;stroke:#2ca02c;" x="157.522113" xlink:href="#mba4ba2f313" y="328.841445"/>
     <use style="fill:#2ca02c;stroke:#2ca02c;" x="326.841523" xlink:href="#mba4ba2f313" y="452.409357"/>
     <use style="fill:#2ca02c;stroke:#2ca02c;" x="157.522113" xlink:href="#mba4ba2f313" y="328.841445"/>
     <use style="fill:#2ca02c;stroke:#2ca02c;" x="200.023342" xlink:href="#mba4ba2f313" y="420.373231"/>
     <use style="fill:#2ca02c;stroke:#2ca02c;" x="454.002457" xlink:href="#mba4ba2f313" y="456.569892"/>
     <use style="fill:#2ca02c;stroke:#2ca02c;" x="200.023342" xlink:href="#mba4ba2f313" y="420.373231"/>
     <use style="fill:#2ca02c;stroke:#2ca02c;" x="411.501229" xlink:href="#mba4ba2f313" y="454.073571"/>
     <use style="fill:#2ca02c;stroke:#2ca02c;" x="454.002457" xlink:href="#mba4ba2f313" y="456.569892"/>
     <use style="fill:#2ca02c;stroke:#2ca02c;" x="326.841523" xlink:href="#mba4ba2f313" y="452.409357"/>
     <use style="fill:#2ca02c;stroke:#2ca02c;" x="411.501229" xlink:href="#mba4ba2f313" y="454.073571"/>
    </g>
   </g>
   <g id="PathCollection_4">
    <defs>
     <path d="M 0 -5 
L -5 5 
L 5 5 
z
" id="m3e2b007347" style="stroke:#d62728;"/>
    </defs>
    <g clip-path="url(#p235175afc6)">
     <use style="fill:#d62728;stroke:#d62728;" x="326.841523" xlink:href="#m3e2b007347" y="456.569892"/>
     <use style="fill:#d62728;stroke:#d62728;" x="326.841523" xlink:href="#m3e2b007347" y="456.569892"/>
     <use style="fill:#d62728;stroke:#d62728;" x="326.841523" xlink:href="#m3e2b007347" y="456.569892"/>
     <use style="fill:#d62728;stroke:#d62728;" x="284.683047" xlink:href="#m3e2b007347" y="445.752499"/>
     <use style="fill:#d62728;stroke:#d62728;" x="326.841523" xlink:href="#m3e2b007347" y="456.569892"/>
     <use style="fill:#d62728;stroke:#d62728;" x="284.683047" xlink:href="#m3e2b007347" y="445.752499"/>
     <use style="fill:#d62728;stroke:#d62728;" x="369.342752" xlink:href="#m3e2b007347" y="460.730428"/>
     <use style="fill:#d62728;stroke:#d62728;" x="326.841523" xlink:href="#m3e2b007347" y="456.569892"/>
     <use style="fill:#d62728;stroke:#d62728;" x="411.501229" xlink:href="#m3e2b007347" y="462.394642"/>
     <use style="fill:#d62728;stroke:#d62728;" x="326.841523" xlink:href="#m3e2b007347" y="456.569892"/>
     <use style="fill:#d62728;stroke:#d62728;" x="326.841523" xlink:href="#m3e2b007347" y="456.569892"/>
     <use style="fill:#d62728;stroke:#d62728;" x="326.841523" xlink:href="#m3e2b007347" y="456.569892"/>
     <use style="fill:#d62728;stroke:#d62728;" x="326.841523" xlink:href="#m3e2b007347" y="456.569892"/>
     <use style="fill:#d62728;stroke:#d62728;" x="369.342752" xlink:href="#m3e2b007347" y="460.730428"/>
     <use style="fill:#d62728;stroke:#d62728;" x="326.841523" xlink:href="#m3e2b007347" y="456.569892"/>
     <use style="fill:#d62728;stroke:#d62728;" x="411.501229" xlink:href="#m3e2b007347" y="462.394642"/>
     <use style="fill:#d62728;stroke:#d62728;" x="326.841523" xlink:href="#m3e2b007347" y="456.569892"/>
     <use style="fill:#d62728;stroke:#d62728;" x="369.342752" xlink:href="#m3e2b007347" y="460.730428"/>
     <use style="fill:#d62728;stroke:#d62728;" x="326.841523" xlink:href="#m3e2b007347" y="456.569892"/>
     <use style="fill:#d62728;stroke:#d62728;" x="326.841523" xlink:href="#m3e2b007347" y="456.569892"/>
    </g>
   </g>
   <g id="PathCollection_5">
    <defs>
     <path d="M 0 2.5 
C 0.663008 2.5 1.29895 2.236584 1.767767 1.767767 
C 2.236584 1.29895 2.5 0.663008 2.5 0 
C 2.5 -0.663008 2.236584 -1.29895 1.767767 -1.767767 
C 1.29895 -2.236584 0.663008 -2.5 0 -2.5 
C -0.663008 -2.5 -1.29895 -2.236584 -1.767767 -1.767767 
C -2.236584 -1.29895 -2.5 -0.663008 -2.5 0 
C -2.5 0.663008 -2.236584 1.29895 -1.767767 1.767767 
C -1.29895 2.236584 -0.663008 2.5 0 2.5 
z
" id="mca1dcb1849" style="stroke:#9467bd;"/>
    </defs>
    <g clip-path="url(#p235175afc6)">
     <use style="fill:#9467bd;stroke:#9467bd;" x="454.002457" xlink:href="#mca1dcb1849" y="460.730428"/>
     <use style="fill:#9467bd;stroke:#9467bd;" x="326.841523" xlink:href="#mca1dcb1849" y="315.943784"/>
     <use style="fill:#9467bd;stroke:#9467bd;" x="369.342752" xlink:href="#mca1dcb1849" y="451.161196"/>
    </g>
   </g>
   <g id="matplotlib.axis_1">
    <g id="xtick_1">
     <g id="line2d_1">
      <defs>
       <path d="M 0 0 
L 0 3.5 
" id="m640e93a843" style="stroke:#000000;stroke-width:0.8;"/>
      </defs>
      <g>
       <use style="stroke:#000000;stroke-width:0.8;" x="115.363636" xlink:href="#m640e93a843" y="504"/>
      </g>
     </g>
     <g id="text_1">
      <!-- 0.00 -->
      <g transform="translate(101.363636 520.625)scale(0.14 -0.14)">
       <defs>
        <path d="M 3.125 29.296875 
Q 3.90625 50 6.4375 56.046875 
Q 8.984375 62.109375 13.671875 66.015625 
Q 18.359375 69.921875 25.1875 69.921875 
Q 32.03125 69.921875 37.109375 64.25 
Q 42.1875 58.59375 43.75 50 
Q 45.3125 41.40625 44.71875 30.265625 
Q 44.140625 19.140625 40.8125 12.109375 
Q 37.5 5.078125 30.859375 2.34375 
Q 24.21875 -0.390625 17.578125 2.921875 
Q 10.9375 6.25 8.203125 11.71875 
Q 5.46875 17.1875 4.296875 23.234375 
Q 3.125 29.296875 3.90625 50 
z
M 12.890625 52.734375 
Q 10.546875 31.25 12.5 22.84375 
Q 14.453125 14.453125 18.9375 10.9375 
Q 23.4375 7.421875 28.125 9.5625 
Q 32.8125 11.71875 34.953125 18.15625 
Q 37.109375 24.609375 37.109375 32.21875 
Q 37.109375 39.84375 36.515625 46.09375 
Q 35.9375 52.34375 33 57.421875 
Q 30.078125 62.5 25.1875 62.6875 
Q 20.3125 62.890625 16.59375 57.8125 
Q 12.890625 52.734375 10.546875 31.25 
z
" id="SimHei-48"/>
        <path d="M 16.796875 1.953125 
L 7.8125 1.953125 
L 7.8125 10.546875 
L 16.796875 10.546875 
z
" id="SimHei-46"/>
       </defs>
       <use xlink:href="#SimHei-48"/>
       <use x="50" xlink:href="#SimHei-46"/>
       <use x="100" xlink:href="#SimHei-48"/>
       <use x="150" xlink:href="#SimHei-48"/>
      </g>
     </g>
    </g>
    <g id="xtick_2">
     <g id="line2d_2">
      <g>
       <use style="stroke:#000000;stroke-width:0.8;" x="183.914005" xlink:href="#m640e93a843" y="504"/>
      </g>
     </g>
     <g id="text_2">
      <!-- 0.02 -->
      <g transform="translate(169.914005 520.625)scale(0.14 -0.14)">
       <defs>
        <path d="M 4.6875 3.90625 
Q 5.078125 9.765625 10.15625 14.453125 
Q 15.234375 19.140625 23.046875 29.09375 
Q 30.859375 39.0625 33.203125 44.53125 
Q 35.546875 50 34.953125 53.90625 
Q 34.375 57.8125 31.25 60.34375 
Q 28.125 62.890625 24.015625 62.5 
Q 19.921875 62.109375 16.203125 59.375 
Q 12.5 56.640625 10.546875 51.171875 
L 3.125 52.34375 
Q 6.25 61.328125 11.125 65.421875 
Q 16.015625 69.53125 22.65625 69.921875 
Q 26.5625 70.3125 29.6875 69.71875 
Q 32.8125 69.140625 36.125 66.984375 
Q 39.453125 64.84375 41.59375 60.546875 
Q 43.75 56.25 43.15625 50.1875 
Q 42.578125 44.140625 37.109375 35.734375 
Q 31.640625 27.34375 16.015625 9.375 
L 44.140625 9.375 
L 44.140625 2.34375 
L 4.6875 2.34375 
z
" id="SimHei-50"/>
       </defs>
       <use xlink:href="#SimHei-48"/>
       <use x="50" xlink:href="#SimHei-46"/>
       <use x="100" xlink:href="#SimHei-48"/>
       <use x="150" xlink:href="#SimHei-50"/>
      </g>
     </g>
    </g>
    <g id="xtick_3">
     <g id="line2d_3">
      <g>
       <use style="stroke:#000000;stroke-width:0.8;" x="252.464373" xlink:href="#m640e93a843" y="504"/>
      </g>
     </g>
     <g id="text_3">
      <!-- 0.04 -->
      <g transform="translate(238.464373 520.625)scale(0.14 -0.14)">
       <defs>
        <path d="M 31.25 17.1875 
L 1.171875 17.1875 
L 1.171875 23.828125 
L 32.8125 69.53125 
L 38.671875 69.53125 
L 38.671875 23.828125 
L 48.046875 23.828125 
L 48.046875 17.1875 
L 38.671875 17.1875 
L 38.671875 2.34375 
L 31.25 2.34375 
z
M 31.25 23.828125 
L 31.25 54.6875 
L 9.375 23.828125 
z
" id="SimHei-52"/>
       </defs>
       <use xlink:href="#SimHei-48"/>
       <use x="50" xlink:href="#SimHei-46"/>
       <use x="100" xlink:href="#SimHei-48"/>
       <use x="150" xlink:href="#SimHei-52"/>
      </g>
     </g>
    </g>
    <g id="xtick_4">
     <g id="line2d_4">
      <g>
       <use style="stroke:#000000;stroke-width:0.8;" x="321.014742" xlink:href="#m640e93a843" y="504"/>
      </g>
     </g>
     <g id="text_4">
      <!-- 0.06 -->
      <g transform="translate(307.014742 520.625)scale(0.14 -0.14)">
       <defs>
        <path d="M 3.515625 19.53125 
Q 4.296875 30.859375 6.046875 34.765625 
Q 7.8125 38.671875 11.328125 44.53125 
L 27.34375 69.53125 
L 36.328125 69.53125 
L 19.921875 43.75 
Q 30.46875 46.484375 36.71875 42.96875 
Q 42.96875 39.453125 45.109375 34.953125 
Q 47.265625 30.46875 47.453125 25.1875 
Q 47.65625 19.921875 45.890625 14.84375 
Q 44.140625 9.765625 39.640625 5.65625 
Q 35.15625 1.5625 27.140625 1.171875 
Q 19.140625 0.78125 13.46875 4.09375 
Q 7.8125 7.421875 5.65625 13.46875 
Q 3.515625 19.53125 4.296875 30.859375 
z
M 12.5 16.015625 
Q 19.53125 8.59375 25.390625 8.203125 
Q 31.25 7.8125 35.15625 12.109375 
Q 39.0625 16.40625 39.0625 24.609375 
Q 39.0625 32.8125 34.171875 35.9375 
Q 29.296875 39.0625 23.234375 38.28125 
Q 17.1875 37.5 14.453125 32.421875 
Q 11.71875 27.34375 12.109375 21.671875 
Q 12.5 16.015625 19.53125 8.59375 
z
" id="SimHei-54"/>
       </defs>
       <use xlink:href="#SimHei-48"/>
       <use x="50" xlink:href="#SimHei-46"/>
       <use x="100" xlink:href="#SimHei-48"/>
       <use x="150" xlink:href="#SimHei-54"/>
      </g>
     </g>
    </g>
    <g id="xtick_5">
     <g id="line2d_5">
      <g>
       <use style="stroke:#000000;stroke-width:0.8;" x="389.565111" xlink:href="#m640e93a843" y="504"/>
      </g>
     </g>
     <g id="text_5">
      <!-- 0.08 -->
      <g transform="translate(375.565111 520.625)scale(0.14 -0.14)">
       <defs>
        <path d="M 2.734375 16.796875 
Q 2.734375 26.171875 5.078125 30.65625 
Q 7.421875 35.15625 12.890625 37.890625 
Q 8.203125 40.625 6.640625 43.9375 
Q 5.078125 47.265625 4.875 51.5625 
Q 4.6875 55.859375 6.046875 58.984375 
Q 7.421875 62.109375 10.15625 64.84375 
Q 12.890625 67.578125 16.203125 68.546875 
Q 19.53125 69.53125 23.4375 69.53125 
Q 27.34375 69.53125 30.46875 68.75 
Q 33.59375 67.96875 37.109375 65.421875 
Q 40.625 62.890625 42.1875 58.203125 
Q 43.75 53.515625 41.984375 47.265625 
Q 40.234375 41.015625 32.8125 37.5 
Q 39.453125 35.546875 42.1875 31.4375 
Q 44.921875 27.34375 44.921875 21.484375 
Q 44.921875 15.625 43.15625 12.109375 
Q 41.40625 8.59375 39.25 6.25 
Q 37.109375 3.90625 33.390625 2.53125 
Q 29.6875 1.171875 24.015625 1.171875 
Q 18.359375 1.171875 14.25 2.53125 
Q 10.15625 3.90625 7.421875 6.640625 
Q 4.6875 9.375 3.703125 13.078125 
Q 2.734375 16.796875 2.734375 26.171875 
z
M 10.9375 26.5625 
Q 10.546875 17.1875 12.296875 13.671875 
Q 14.0625 10.15625 18.75 9.171875 
Q 23.4375 8.203125 28.515625 9.375 
Q 33.59375 10.546875 35.546875 14.84375 
Q 37.5 19.140625 36.90625 23.4375 
Q 36.328125 27.734375 32.03125 30.65625 
Q 27.734375 33.59375 22.65625 33.203125 
Q 17.578125 32.8125 14.25 29.6875 
Q 10.9375 26.5625 10.546875 17.1875 
z
M 12.109375 56.25 
Q 12.109375 48.4375 14.84375 44.921875 
Q 17.578125 41.40625 23.4375 41.40625 
Q 29.296875 41.40625 32.21875 44.921875 
Q 35.15625 48.4375 34.953125 53.3125 
Q 34.765625 58.203125 31.4375 60.546875 
Q 28.125 62.890625 22.453125 62.5 
Q 16.796875 62.109375 14.453125 59.171875 
Q 12.109375 56.25 12.109375 48.4375 
z
" id="SimHei-56"/>
       </defs>
       <use xlink:href="#SimHei-48"/>
       <use x="50" xlink:href="#SimHei-46"/>
       <use x="100" xlink:href="#SimHei-48"/>
       <use x="150" xlink:href="#SimHei-56"/>
      </g>
     </g>
    </g>
    <g id="xtick_6">
     <g id="line2d_6">
      <g>
       <use style="stroke:#000000;stroke-width:0.8;" x="458.115479" xlink:href="#m640e93a843" y="504"/>
      </g>
     </g>
     <g id="text_6">
      <!-- 0.10 -->
      <g transform="translate(444.115479 520.625)scale(0.14 -0.14)">
       <defs>
        <path d="M 21.875 56.25 
Q 16.796875 51.171875 8.984375 46.484375 
L 8.984375 53.90625 
Q 18.75 60.546875 25 69.53125 
L 29.6875 69.53125 
L 29.6875 2.34375 
L 21.875 2.34375 
z
" id="SimHei-49"/>
       </defs>
       <use xlink:href="#SimHei-48"/>
       <use x="50" xlink:href="#SimHei-46"/>
       <use x="100" xlink:href="#SimHei-49"/>
       <use x="150" xlink:href="#SimHei-48"/>
      </g>
     </g>
    </g>
    <g id="xtick_7">
     <g id="line2d_7">
      <g>
       <use style="stroke:#000000;stroke-width:0.8;" x="526.665848" xlink:href="#m640e93a843" y="504"/>
      </g>
     </g>
     <g id="text_7">
      <!-- 0.12 -->
      <g transform="translate(512.665848 520.625)scale(0.14 -0.14)">
       <use xlink:href="#SimHei-48"/>
       <use x="50" xlink:href="#SimHei-46"/>
       <use x="100" xlink:href="#SimHei-49"/>
       <use x="150" xlink:href="#SimHei-50"/>
      </g>
     </g>
    </g>
    <g id="xtick_8">
     <g id="line2d_8">
      <g>
       <use style="stroke:#000000;stroke-width:0.8;" x="595.216216" xlink:href="#m640e93a843" y="504"/>
      </g>
     </g>
     <g id="text_8">
      <!-- 0.14 -->
      <g transform="translate(581.216216 520.625)scale(0.14 -0.14)">
       <use xlink:href="#SimHei-48"/>
       <use x="50" xlink:href="#SimHei-46"/>
       <use x="100" xlink:href="#SimHei-49"/>
       <use x="150" xlink:href="#SimHei-52"/>
      </g>
     </g>
    </g>
    <g id="text_9">
     <!-- 选中特征数/全部特征数 -->
     <g transform="translate(285 539.3125)scale(0.16 -0.16)">
      <defs>
       <path d="M 50 75.78125 
Q 47.265625 71.484375 45.3125 66.015625 
L 58.203125 66.015625 
Q 58.203125 73.828125 57.8125 80.859375 
L 66.796875 80.859375 
Q 66.015625 75.390625 66.015625 66.015625 
Q 79.6875 66.40625 85.546875 66.40625 
L 85.546875 59.765625 
Q 78.90625 60.15625 66.015625 60.15625 
L 66.015625 46.484375 
L 79.296875 46.484375 
Q 85.15625 46.484375 91.015625 46.875 
L 91.015625 39.84375 
Q 85.15625 40.234375 73.046875 40.234375 
L 73.046875 18.75 
Q 73.046875 14.84375 77.34375 14.84375 
L 82.03125 14.84375 
Q 84.765625 16.40625 85.15625 23.828125 
Q 89.0625 21.484375 93.359375 20.703125 
Q 91.015625 7.421875 85.15625 7.421875 
L 74.609375 7.421875 
Q 65.625 7.421875 65.625 15.625 
L 65.625 40.234375 
L 57.8125 40.234375 
Q 57.8125 28.515625 53.515625 20.3125 
Q 49.21875 12.109375 41.796875 5.078125 
Q 39.0625 7.8125 33.984375 9.375 
Q 43.75 16.40625 47.0625 23.234375 
Q 50.390625 30.078125 50.390625 40.234375 
Q 38.671875 40.234375 32.8125 39.84375 
L 32.8125 47.265625 
Q 39.0625 46.484375 43.75 46.484375 
L 58.203125 46.484375 
L 58.203125 60.15625 
L 43.359375 60.15625 
Q 41.40625 55.46875 40.234375 51.171875 
Q 35.9375 52.734375 32.421875 53.90625 
Q 38.28125 64.0625 41.015625 78.125 
Q 44.921875 76.953125 50 75.78125 
z
M 26.171875 44.921875 
Q 25.78125 36.71875 25.78125 30.078125 
L 25.78125 8.984375 
Q 35.9375 0.78125 58.203125 0 
Q 80.46875 -0.78125 95.703125 1.953125 
Q 93.75 0 91.796875 -7.03125 
Q 67.578125 -7.421875 56.828125 -6.640625 
Q 46.09375 -5.859375 38.671875 -3.703125 
Q 31.25 -1.5625 26.953125 1.171875 
Q 22.65625 3.90625 19.53125 0.578125 
Q 16.40625 -2.734375 12.5 -7.8125 
Q 9.765625 -4.6875 5.46875 -2.734375 
Q 9.765625 1.953125 18.359375 8.203125 
L 18.359375 38.671875 
Q 12.5 38.671875 5.859375 38.28125 
L 5.859375 45.3125 
Q 13.28125 44.921875 26.171875 44.921875 
z
M 20.3125 75.78125 
Q 25.390625 64.0625 27.34375 58.203125 
Q 23.828125 57.03125 20.3125 55.46875 
Q 18.75 60.15625 12.5 73.046875 
Q 16.015625 74.21875 20.3125 75.78125 
z
" id="SimHei-36873"/>
       <path d="M 54.296875 81.25 
Q 53.90625 70.3125 53.90625 60.546875 
L 87.890625 60.546875 
Q 87.5 52.734375 87.5 39.0625 
Q 87.5 25.78125 87.890625 19.140625 
L 79.296875 19.140625 
L 79.296875 25 
L 53.90625 25 
L 53.90625 8.203125 
Q 53.90625 3.515625 54.296875 -9.375 
L 44.921875 -9.375 
Q 45.703125 -2.34375 45.703125 7.03125 
L 45.703125 25 
L 20.3125 25 
L 20.3125 19.140625 
L 11.71875 19.140625 
Q 12.109375 25 12.109375 39.0625 
Q 12.109375 53.515625 11.71875 60.546875 
L 45.703125 60.546875 
Q 45.703125 71.09375 45.3125 81.25 
z
M 79.296875 31.25 
L 79.296875 54.296875 
L 53.90625 54.296875 
L 53.90625 31.25 
z
M 45.703125 31.25 
L 45.703125 54.296875 
L 20.3125 54.296875 
L 20.3125 31.25 
z
" id="SimHei-20013"/>
       <path d="M 63.28125 49.21875 
L 63.28125 63.28125 
L 57.421875 63.28125 
Q 51.171875 63.28125 46.484375 62.890625 
L 46.484375 69.921875 
Q 50.78125 69.53125 57.421875 69.53125 
L 63.28125 69.53125 
Q 63.28125 77.34375 62.5 81.25 
L 70.703125 81.25 
Q 70.3125 77.34375 70.3125 69.53125 
L 79.296875 69.53125 
Q 85.15625 69.53125 90.625 69.921875 
L 90.625 62.890625 
Q 86.71875 63.28125 79.296875 63.28125 
L 70.3125 63.28125 
L 70.3125 49.21875 
L 85.15625 49.21875 
Q 91.015625 49.21875 96.09375 49.609375 
L 96.09375 42.578125 
Q 91.40625 42.96875 85.9375 42.96875 
L 82.421875 42.96875 
L 82.421875 31.25 
Q 91.015625 31.25 95.3125 31.640625 
L 95.3125 24.21875 
Q 90.625 24.609375 82.421875 24.609375 
L 82.421875 -1.171875 
Q 82.03125 -5.859375 78.90625 -7.609375 
Q 75.78125 -9.375 66.796875 -10.546875 
Q 66.015625 -5.859375 63.671875 -1.5625 
Q 70.703125 -1.953125 73.046875 -1.5625 
Q 75.390625 -1.171875 75.390625 2.34375 
L 75.390625 24.609375 
L 56.25 24.609375 
Q 49.609375 24.609375 44.53125 24.21875 
L 44.53125 31.640625 
Q 48.828125 31.25 56.25 31.25 
L 75.390625 31.25 
L 75.390625 42.96875 
L 55.859375 42.96875 
Q 48.828125 42.96875 43.359375 42.578125 
L 43.359375 49.609375 
Q 48.828125 49.21875 55.46875 49.21875 
z
M 17.96875 66.796875 
Q 16.40625 64.453125 14.84375 56.25 
L 23.4375 56.25 
L 23.4375 69.140625 
Q 23.4375 75 23.046875 81.25 
L 31.25 81.25 
Q 30.46875 75.390625 30.46875 69.140625 
L 30.46875 56.25 
Q 35.9375 56.25 40.625 56.640625 
L 40.625 49.609375 
Q 36.328125 50 30.46875 50 
L 30.46875 32.421875 
Q 35.546875 34.375 40.234375 36.328125 
Q 40.625 33.203125 41.40625 29.6875 
Q 37.109375 28.125 30.46875 25.390625 
L 30.46875 3.515625 
Q 30.46875 -2.734375 30.859375 -10.15625 
L 23.046875 -10.15625 
Q 23.4375 -3.125 23.4375 3.515625 
L 23.4375 22.65625 
Q 13.28125 18.75 8.59375 16.015625 
Q 7.03125 19.921875 4.296875 24.21875 
Q 9.375 24.609375 23.4375 30.078125 
L 23.4375 50 
L 13.28125 50 
Q 11.71875 43.359375 10.546875 38.28125 
Q 6.640625 39.84375 3.515625 40.625 
Q 5.46875 46.09375 7.21875 54.484375 
Q 8.984375 62.890625 9.375 68.75 
Q 14.0625 67.578125 17.96875 66.796875 
z
M 56.25 18.75 
Q 59.375 11.71875 62.109375 5.078125 
Q 58.59375 4.296875 54.6875 2.34375 
Q 51.953125 10.546875 48.828125 16.015625 
Q 52.734375 17.1875 56.25 18.75 
z
" id="SimHei-29305"/>
       <path d="M 78.90625 72.65625 
Q 87.109375 72.65625 93.359375 73.046875 
L 93.359375 65.234375 
Q 87.109375 65.625 78.90625 65.625 
L 69.53125 65.625 
L 69.53125 41.015625 
L 78.125 41.015625 
Q 85.546875 41.015625 91.796875 41.40625 
L 91.796875 33.984375 
Q 85.546875 34.375 78.125 34.375 
L 69.53125 34.375 
L 69.53125 3.125 
L 79.6875 3.125 
Q 87.109375 3.125 95.703125 3.515625 
L 95.703125 -3.90625 
Q 87.109375 -3.515625 79.6875 -3.515625 
L 44.921875 -3.515625 
Q 35.546875 -3.515625 29.296875 -3.90625 
L 29.296875 3.515625 
Q 34.765625 3.125 41.40625 3.125 
L 41.40625 32.8125 
Q 41.40625 38.671875 41.015625 45.703125 
L 49.609375 45.703125 
Q 49.21875 39.0625 49.21875 32.8125 
L 49.21875 3.125 
L 61.328125 3.125 
L 61.328125 65.625 
L 53.515625 65.625 
Q 44.53125 65.625 37.890625 65.234375 
L 37.890625 73.046875 
Q 44.53125 72.65625 53.515625 72.65625 
z
M 35.15625 53.90625 
Q 32.8125 50.390625 25.390625 40.234375 
L 25.390625 7.03125 
Q 25.390625 -1.5625 25.78125 -10.9375 
L 17.1875 -10.9375 
Q 17.578125 -1.5625 17.578125 7.03125 
L 17.578125 31.25 
Q 12.890625 25 8.59375 20.3125 
Q 6.640625 24.21875 3.515625 26.953125 
Q 10.546875 33.59375 16.59375 41.40625 
Q 22.65625 49.21875 26.953125 58.984375 
Q 30.46875 56.640625 35.15625 53.90625 
z
M 3.90625 57.421875 
Q 10.546875 62.109375 16.015625 68.9375 
Q 21.484375 75.78125 24.21875 82.421875 
Q 28.515625 80.078125 33.203125 77.734375 
Q 29.6875 73.828125 23.234375 65.8125 
Q 16.796875 57.8125 10.546875 51.171875 
Q 7.421875 54.296875 3.90625 57.421875 
z
" id="SimHei-24449"/>
       <path d="M 70.703125 76.953125 
Q 69.921875 75 68.75 71.671875 
Q 67.578125 68.359375 65.234375 59.765625 
L 83.203125 59.765625 
Q 87.109375 59.765625 92.578125 60.15625 
L 92.578125 53.125 
Q 88.28125 53.515625 85.9375 53.515625 
Q 85.9375 47.265625 83.78125 33.78125 
Q 81.640625 20.3125 76.171875 10.546875 
Q 80.078125 5.859375 84.953125 2.140625 
Q 89.84375 -1.5625 94.140625 -3.125 
Q 89.453125 -6.640625 87.890625 -9.765625 
Q 83.203125 -7.03125 79.296875 -3.515625 
Q 75.390625 0 71.484375 5.078125 
Q 67.1875 0.390625 62.296875 -2.921875 
Q 57.421875 -6.25 50 -10.15625 
Q 48.046875 -6.640625 44.53125 -4.6875 
Q 50.390625 -2.34375 57.03125 1.953125 
Q 63.671875 6.25 67.1875 10.546875 
Q 64.453125 16.015625 61.90625 22.265625 
Q 59.375 28.515625 57.421875 38.671875 
Q 56.25 35.546875 53.515625 30.46875 
Q 50.78125 32.03125 46.875 33.59375 
Q 53.125 44.53125 57.03125 57.421875 
Q 60.9375 70.3125 62.109375 79.6875 
Q 66.796875 77.734375 70.703125 76.953125 
z
M 32.8125 35.15625 
Q 31.25 33.59375 29.296875 30.078125 
L 50.78125 30.078125 
Q 48.4375 20.3125 42.578125 10.546875 
Q 48.828125 8.203125 52.34375 6.25 
Q 50.390625 3.515625 48.828125 0.390625 
Q 45.3125 2.734375 38.28125 5.078125 
Q 30.46875 -3.515625 11.328125 -10.15625 
Q 9.375 -5.859375 6.25 -4.296875 
Q 24.609375 0 31.25 7.421875 
Q 20.3125 10.15625 13.28125 12.109375 
Q 15.625 15.625 19.53125 23.828125 
Q 15.625 23.828125 6.640625 23.4375 
L 6.640625 30.46875 
Q 14.0625 30.078125 21.875 30.078125 
Q 23.4375 33.59375 24.21875 37.890625 
Q 28.515625 36.328125 32.8125 35.15625 
z
M 27.734375 61.71875 
Q 27.734375 71.09375 27.34375 79.6875 
L 35.15625 79.6875 
Q 34.765625 71.484375 34.765625 61.71875 
Q 48.046875 61.71875 53.515625 62.109375 
L 53.515625 55.078125 
Q 48.046875 55.46875 34.765625 55.46875 
Q 34.765625 44.140625 35.15625 37.890625 
L 27.34375 37.890625 
Q 27.734375 43.359375 27.734375 51.5625 
Q 25.78125 48.4375 20.3125 43.546875 
Q 14.84375 38.671875 10.15625 35.9375 
Q 8.203125 39.453125 4.296875 41.015625 
Q 7.8125 42.1875 13.671875 46.484375 
Q 19.53125 50.78125 22.65625 55.46875 
Q 14.84375 55.46875 7.8125 55.078125 
L 7.8125 62.109375 
Q 14.453125 61.71875 27.734375 61.71875 
z
M 62.109375 49.609375 
Q 65.625 26.5625 71.875 17.578125 
Q 75.78125 26.5625 77.140625 35.734375 
Q 78.515625 44.921875 78.90625 53.515625 
L 63.671875 53.515625 
L 62.109375 49.609375 
z
M 22.65625 15.625 
Q 27.34375 14.453125 35.546875 12.5 
Q 38.671875 16.40625 41.40625 23.828125 
L 26.953125 23.828125 
Q 25 19.921875 22.65625 15.625 
z
M 51.953125 75.390625 
Q 50 72.265625 48.828125 69.53125 
Q 47.65625 66.796875 45.703125 62.890625 
Q 42.578125 64.453125 39.453125 65.234375 
Q 42.578125 70.3125 45.3125 78.125 
Q 49.21875 76.171875 51.953125 75.390625 
z
M 40.234375 52.734375 
Q 45.3125 47.65625 50 42.578125 
Q 47.65625 40.625 44.921875 37.890625 
Q 39.453125 44.53125 35.9375 48.4375 
Q 38.28125 50.390625 40.234375 52.734375 
z
M 14.453125 78.125 
Q 19.921875 72.65625 23.4375 67.1875 
L 17.578125 63.671875 
Q 14.84375 69.140625 9.375 73.828125 
Q 12.890625 76.171875 14.453125 78.125 
z
" id="SimHei-25968"/>
       <path d="M 46.875 71.09375 
L 5.46875 -2.734375 
L 1.5625 -0.390625 
L 42.96875 73.4375 
z
" id="SimHei-47"/>
       <path d="M 54.296875 75.390625 
Q 67.96875 53.515625 95.703125 47.265625 
Q 92.1875 42.96875 91.015625 38.28125 
Q 83.203125 41.40625 77.734375 44.921875 
L 77.734375 38.671875 
Q 73.4375 39.0625 64.0625 39.0625 
L 54.6875 39.0625 
L 54.6875 23.4375 
L 69.53125 23.4375 
Q 77.734375 23.4375 82.8125 23.828125 
L 82.8125 16.796875 
Q 77.734375 17.1875 69.53125 17.1875 
L 54.6875 17.1875 
L 54.6875 -0.390625 
L 69.921875 -0.390625 
Q 81.640625 -0.390625 89.0625 0.390625 
L 89.0625 -7.8125 
Q 82.03125 -6.640625 70.703125 -6.640625 
L 27.734375 -6.640625 
Q 16.015625 -6.640625 10.15625 -7.03125 
L 10.15625 0 
Q 16.015625 -0.390625 27.734375 -0.390625 
L 46.875 -0.390625 
L 46.875 17.1875 
L 35.9375 17.1875 
Q 22.65625 17.1875 18.359375 16.796875 
L 18.359375 23.828125 
Q 22.65625 23.4375 35.546875 23.4375 
L 46.875 23.4375 
L 46.875 39.0625 
L 39.0625 39.0625 
Q 26.953125 39.0625 23.4375 38.671875 
L 23.4375 44.921875 
Q 19.921875 42.1875 10.15625 36.71875 
Q 7.8125 41.40625 4.6875 44.921875 
Q 14.0625 47.265625 26.5625 56.640625 
Q 39.0625 66.015625 46.484375 81.25 
Q 51.171875 79.296875 56.25 77.34375 
z
M 25.78125 46.09375 
Q 30.46875 45.703125 39.453125 45.703125 
L 62.890625 45.703125 
Q 70.703125 45.703125 75 46.09375 
Q 58.203125 54.6875 50 71.09375 
Q 39.453125 55.078125 25.78125 46.09375 
z
" id="SimHei-20840"/>
       <path d="M 82.8125 41.40625 
Q 89.84375 34.375 93.15625 28.3125 
Q 96.484375 22.265625 96.09375 16.015625 
Q 95.703125 9.765625 90.8125 6.4375 
Q 85.9375 3.125 76.171875 1.953125 
Q 75.390625 6.25 72.65625 11.328125 
Q 82.03125 11.328125 84.953125 13.46875 
Q 87.890625 15.625 87.6875 19.140625 
Q 87.5 22.65625 83.59375 28.90625 
Q 79.6875 35.15625 74.609375 40.234375 
Q 77.734375 47.265625 82.8125 67.1875 
L 68.75 67.1875 
L 68.75 -9.765625 
L 60.9375 -9.765625 
Q 61.328125 -1.5625 61.328125 8.984375 
L 61.328125 56.640625 
Q 61.328125 65.234375 60.546875 73.828125 
L 93.359375 73.828125 
Q 87.109375 53.515625 82.8125 41.40625 
z
M 50.390625 27.734375 
Q 50 18.75 50 9.765625 
Q 50 0.78125 50.390625 -8.984375 
L 42.578125 -8.984375 
L 42.578125 -1.171875 
L 21.484375 -1.171875 
L 21.484375 -8.984375 
L 13.671875 -8.984375 
Q 14.0625 -0.78125 14.0625 8.203125 
Q 14.0625 17.578125 13.671875 27.734375 
L 50.390625 27.734375 
z
M 30.078125 82.421875 
Q 36.328125 74.609375 38.28125 71.09375 
Q 35.9375 69.921875 33.984375 68.75 
Q 50.390625 68.75 54.6875 69.140625 
L 54.6875 61.71875 
Q 51.953125 61.71875 44.140625 62.109375 
L 50.78125 58.984375 
Q 48.046875 54.6875 42.96875 43.75 
Q 52.34375 43.75 57.421875 44.140625 
L 57.421875 36.71875 
Q 52.34375 37.109375 47.265625 37.109375 
L 17.96875 37.109375 
Q 10.9375 37.109375 6.25 36.71875 
L 6.25 44.140625 
Q 8.984375 43.75 21.09375 43.75 
Q 18.359375 50.390625 14.0625 57.421875 
Q 17.1875 58.984375 20.703125 60.9375 
Q 24.609375 55.46875 28.90625 47.265625 
Q 25 45.3125 23.046875 43.75 
L 35.546875 43.75 
Q 40.625 55.859375 41.796875 62.109375 
L 32.421875 62.109375 
Q 14.453125 62.109375 8.984375 61.71875 
L 8.984375 69.140625 
Q 13.671875 68.75 30.078125 68.75 
Q 26.953125 75 23.828125 78.515625 
Q 27.34375 80.46875 30.078125 82.421875 
z
M 42.578125 5.078125 
L 42.578125 21.484375 
L 21.484375 21.484375 
L 21.484375 5.078125 
z
" id="SimHei-37096"/>
      </defs>
      <use xlink:href="#SimHei-36873"/>
      <use x="100" xlink:href="#SimHei-20013"/>
      <use x="200" xlink:href="#SimHei-29305"/>
      <use x="300" xlink:href="#SimHei-24449"/>
      <use x="400" xlink:href="#SimHei-25968"/>
      <use x="500" xlink:href="#SimHei-47"/>
      <use x="550" xlink:href="#SimHei-20840"/>
      <use x="650" xlink:href="#SimHei-37096"/>
      <use x="750" xlink:href="#SimHei-29305"/>
      <use x="850" xlink:href="#SimHei-24449"/>
      <use x="950" xlink:href="#SimHei-25968"/>
     </g>
    </g>
   </g>
   <g id="matplotlib.axis_2">
    <g id="ytick_1">
     <g id="line2d_9">
      <defs>
       <path d="M 0 0 
L -3.5 0 
" id="m69026a0365" style="stroke:#000000;stroke-width:0.8;"/>
      </defs>
      <g>
       <use style="stroke:#000000;stroke-width:0.8;" x="90" xlink:href="#m69026a0365" y="504"/>
      </g>
     </g>
     <g id="text_10">
      <!-- 0.0 -->
      <g transform="translate(62 508.8125)scale(0.14 -0.14)">
       <use xlink:href="#SimHei-48"/>
       <use x="50" xlink:href="#SimHei-46"/>
       <use x="100" xlink:href="#SimHei-48"/>
      </g>
     </g>
    </g>
    <g id="ytick_2">
     <g id="line2d_10">
      <g>
       <use style="stroke:#000000;stroke-width:0.8;" x="90" xlink:href="#m69026a0365" y="462.394642"/>
      </g>
     </g>
     <g id="text_11">
      <!-- 0.1 -->
      <g transform="translate(62 467.207142)scale(0.14 -0.14)">
       <use xlink:href="#SimHei-48"/>
       <use x="50" xlink:href="#SimHei-46"/>
       <use x="100" xlink:href="#SimHei-49"/>
      </g>
     </g>
    </g>
    <g id="ytick_3">
     <g id="line2d_11">
      <g>
       <use style="stroke:#000000;stroke-width:0.8;" x="90" xlink:href="#m69026a0365" y="420.789285"/>
      </g>
     </g>
     <g id="text_12">
      <!-- 0.2 -->
      <g transform="translate(62 425.601785)scale(0.14 -0.14)">
       <use xlink:href="#SimHei-48"/>
       <use x="50" xlink:href="#SimHei-46"/>
       <use x="100" xlink:href="#SimHei-50"/>
      </g>
     </g>
    </g>
    <g id="ytick_4">
     <g id="line2d_12">
      <g>
       <use style="stroke:#000000;stroke-width:0.8;" x="90" xlink:href="#m69026a0365" y="379.183927"/>
      </g>
     </g>
     <g id="text_13">
      <!-- 0.3 -->
      <g transform="translate(62 383.996427)scale(0.14 -0.14)">
       <defs>
        <path d="M 3.90625 19.140625 
L 10.9375 20.3125 
Q 12.5 15.234375 16.015625 11.90625 
Q 19.53125 8.59375 24.796875 8.78125 
Q 30.078125 8.984375 33.203125 13.078125 
Q 36.328125 17.1875 35.9375 22.453125 
Q 35.546875 27.734375 31.828125 30.65625 
Q 28.125 33.59375 19.921875 34.765625 
L 19.921875 39.84375 
Q 28.125 40.625 31.828125 44.140625 
Q 35.546875 47.65625 35.15625 53.3125 
Q 34.765625 58.984375 30.078125 61.515625 
Q 25.390625 64.0625 20.109375 62.109375 
Q 14.84375 60.15625 11.71875 51.171875 
L 4.6875 52.34375 
Q 7.03125 59.375 11.125 64.0625 
Q 15.234375 68.75 22.265625 69.53125 
Q 29.296875 70.3125 34.5625 67.765625 
Q 39.84375 65.234375 41.984375 59.953125 
Q 44.140625 54.6875 42.578125 48.4375 
Q 41.015625 42.1875 33.59375 37.5 
Q 39.0625 35.15625 41.984375 30.46875 
Q 44.921875 25.78125 43.9375 18.15625 
Q 42.96875 10.546875 37.109375 5.859375 
Q 31.25 1.171875 23.828125 1.359375 
Q 16.40625 1.5625 10.9375 6.046875 
Q 5.46875 10.546875 3.90625 19.140625 
z
" id="SimHei-51"/>
       </defs>
       <use xlink:href="#SimHei-48"/>
       <use x="50" xlink:href="#SimHei-46"/>
       <use x="100" xlink:href="#SimHei-51"/>
      </g>
     </g>
    </g>
    <g id="ytick_5">
     <g id="line2d_13">
      <g>
       <use style="stroke:#000000;stroke-width:0.8;" x="90" xlink:href="#m69026a0365" y="337.57857"/>
      </g>
     </g>
     <g id="text_14">
      <!-- 0.4 -->
      <g transform="translate(62 342.39107)scale(0.14 -0.14)">
       <use xlink:href="#SimHei-48"/>
       <use x="50" xlink:href="#SimHei-46"/>
       <use x="100" xlink:href="#SimHei-52"/>
      </g>
     </g>
    </g>
    <g id="ytick_6">
     <g id="line2d_14">
      <g>
       <use style="stroke:#000000;stroke-width:0.8;" x="90" xlink:href="#m69026a0365" y="295.973212"/>
      </g>
     </g>
     <g id="text_15">
      <!-- 0.5 -->
      <g transform="translate(62 300.785712)scale(0.14 -0.14)">
       <defs>
        <path d="M 8.59375 20.703125 
Q 11.328125 10.15625 17.96875 8.984375 
Q 24.609375 7.8125 28.703125 10.34375 
Q 32.8125 12.890625 34.5625 16.984375 
Q 36.328125 21.09375 36.125 26.171875 
Q 35.9375 31.25 33.390625 34.765625 
Q 30.859375 38.28125 26.953125 39.453125 
Q 23.046875 40.625 18.15625 39.453125 
Q 13.28125 38.28125 10.15625 33.984375 
L 3.515625 34.765625 
Q 4.296875 37.109375 10.9375 68.359375 
L 41.796875 68.359375 
L 41.796875 61.328125 
L 16.796875 61.328125 
Q 14.84375 50.78125 12.890625 44.53125 
Q 18.75 47.265625 23.828125 47.0625 
Q 28.90625 46.875 33.59375 44.71875 
Q 38.28125 42.578125 40.421875 38.859375 
Q 42.578125 35.15625 43.546875 31.4375 
Q 44.53125 27.734375 44.328125 23.4375 
Q 44.140625 19.140625 42.578125 14.640625 
Q 41.015625 10.15625 37.890625 7.21875 
Q 34.765625 4.296875 30.265625 2.53125 
Q 25.78125 0.78125 19.921875 1.171875 
Q 14.0625 1.5625 8.78125 5.46875 
Q 3.515625 9.375 1.5625 18.75 
z
" id="SimHei-53"/>
       </defs>
       <use xlink:href="#SimHei-48"/>
       <use x="50" xlink:href="#SimHei-46"/>
       <use x="100" xlink:href="#SimHei-53"/>
      </g>
     </g>
    </g>
    <g id="ytick_7">
     <g id="line2d_15">
      <g>
       <use style="stroke:#000000;stroke-width:0.8;" x="90" xlink:href="#m69026a0365" y="254.367855"/>
      </g>
     </g>
     <g id="text_16">
      <!-- 0.6 -->
      <g transform="translate(62 259.180355)scale(0.14 -0.14)">
       <use xlink:href="#SimHei-48"/>
       <use x="50" xlink:href="#SimHei-46"/>
       <use x="100" xlink:href="#SimHei-54"/>
      </g>
     </g>
    </g>
    <g id="ytick_8">
     <g id="line2d_16">
      <g>
       <use style="stroke:#000000;stroke-width:0.8;" x="90" xlink:href="#m69026a0365" y="212.762497"/>
      </g>
     </g>
     <g id="text_17">
      <!-- 0.7 -->
      <g transform="translate(62 217.574997)scale(0.14 -0.14)">
       <defs>
        <path d="M 13.28125 2.34375 
Q 20.3125 32.03125 37.890625 61.328125 
L 4.296875 61.328125 
L 4.296875 68.359375 
L 46.09375 68.359375 
L 46.09375 61.71875 
Q 27.734375 32.03125 21.875 2.34375 
L 13.28125 2.34375 
z
" id="SimHei-55"/>
       </defs>
       <use xlink:href="#SimHei-48"/>
       <use x="50" xlink:href="#SimHei-46"/>
       <use x="100" xlink:href="#SimHei-55"/>
      </g>
     </g>
    </g>
    <g id="ytick_9">
     <g id="line2d_17">
      <g>
       <use style="stroke:#000000;stroke-width:0.8;" x="90" xlink:href="#m69026a0365" y="171.157139"/>
      </g>
     </g>
     <g id="text_18">
      <!-- 0.8 -->
      <g transform="translate(62 175.969639)scale(0.14 -0.14)">
       <use xlink:href="#SimHei-48"/>
       <use x="50" xlink:href="#SimHei-46"/>
       <use x="100" xlink:href="#SimHei-56"/>
      </g>
     </g>
    </g>
    <g id="ytick_10">
     <g id="line2d_18">
      <g>
       <use style="stroke:#000000;stroke-width:0.8;" x="90" xlink:href="#m69026a0365" y="129.551782"/>
      </g>
     </g>
     <g id="text_19">
      <!-- 0.9 -->
      <g transform="translate(62 134.364282)scale(0.14 -0.14)">
       <defs>
        <path d="M 12.5 1.171875 
Q 21.09375 15.625 26.5625 27.34375 
Q 16.796875 25.78125 10.34375 29.875 
Q 3.90625 33.984375 2.53125 41.015625 
Q 1.171875 48.046875 2.734375 53.703125 
Q 4.296875 59.375 7.609375 63.078125 
Q 10.9375 66.796875 15.625 68.359375 
Q 20.3125 69.921875 24.015625 69.921875 
Q 27.734375 69.921875 31.640625 68.359375 
Q 35.546875 66.796875 38.671875 63.671875 
Q 41.796875 60.546875 42.96875 57.21875 
Q 44.140625 53.90625 44.140625 48.625 
Q 44.140625 43.359375 40.234375 35.15625 
Q 36.328125 26.953125 21.09375 1.171875 
z
M 9.765625 50 
Q 10.9375 39.84375 14.640625 36.515625 
Q 18.359375 33.203125 22.65625 33.59375 
Q 26.953125 33.984375 29.484375 35.9375 
Q 32.03125 37.890625 34.375 42.578125 
Q 35.9375 48.4375 35.15625 52.53125 
Q 34.375 56.640625 31.046875 59.375 
Q 27.734375 62.109375 23.828125 62.109375 
Q 21.484375 62.5 17.765625 60.9375 
Q 14.0625 59.375 11.90625 54.6875 
Q 9.765625 50 10.9375 39.84375 
z
" id="SimHei-57"/>
       </defs>
       <use xlink:href="#SimHei-48"/>
       <use x="50" xlink:href="#SimHei-46"/>
       <use x="100" xlink:href="#SimHei-57"/>
      </g>
     </g>
    </g>
    <g id="ytick_11">
     <g id="line2d_19">
      <g>
       <use style="stroke:#000000;stroke-width:0.8;" x="90" xlink:href="#m69026a0365" y="87.946424"/>
      </g>
     </g>
     <g id="text_20">
      <!-- 1.0 -->
      <g transform="translate(62 92.758924)scale(0.14 -0.14)">
       <use xlink:href="#SimHei-49"/>
       <use x="50" xlink:href="#SimHei-46"/>
       <use x="100" xlink:href="#SimHei-48"/>
      </g>
     </g>
    </g>
    <g id="text_21">
     <!-- 分类误差 -->
     <g transform="translate(56 318.56)rotate(-90)scale(0.16 -0.16)">
      <defs>
       <path d="M 15.625 -10.15625 
Q 12.890625 -5.859375 8.984375 -3.515625 
Q 15.234375 -1.171875 20.3125 2.140625 
Q 25.390625 5.46875 29.296875 10.34375 
Q 33.203125 15.234375 35.15625 21.09375 
Q 37.109375 26.953125 37.890625 35.546875 
Q 28.90625 35.546875 23.4375 35.15625 
L 23.4375 43.359375 
Q 29.6875 42.96875 39.453125 42.96875 
L 78.515625 42.96875 
Q 77.734375 37.109375 77.34375 32.8125 
L 74.21875 3.90625 
Q 73.4375 -3.125 67.96875 -5.46875 
Q 62.5 -7.8125 55.859375 -8.203125 
Q 55.46875 -4.296875 51.953125 0.78125 
Q 60.15625 0.390625 63.078125 1.359375 
Q 66.015625 2.34375 66.796875 8.203125 
L 69.53125 35.546875 
L 46.09375 35.546875 
Q 44.921875 25.390625 42.765625 18.546875 
Q 40.625 11.71875 36.71875 6.640625 
Q 32.8125 1.5625 27.34375 -2.734375 
Q 21.875 -7.03125 15.625 -10.15625 
z
M 61.71875 80.859375 
Q 64.453125 72.65625 72.84375 62.109375 
Q 81.25 51.5625 96.484375 43.75 
Q 93.359375 41.015625 90.234375 35.546875 
Q 83.203125 40.625 77.921875 45.109375 
Q 72.65625 49.609375 69.140625 53.515625 
Q 65.625 57.421875 61.328125 64.640625 
Q 57.03125 71.875 54.296875 78.125 
Q 58.59375 79.296875 61.71875 80.859375 
z
M 42.1875 75.390625 
Q 38.671875 69.140625 36.328125 64.453125 
Q 33.984375 59.765625 31.640625 56.046875 
Q 29.296875 52.34375 24.609375 46.09375 
Q 19.921875 39.84375 13.28125 33.203125 
Q 9.765625 36.71875 6.25 38.671875 
Q 14.0625 45.703125 18.546875 51.5625 
Q 23.046875 57.421875 27.140625 64.25 
Q 31.25 71.09375 34.375 79.296875 
Q 37.5 76.953125 42.1875 75.390625 
z
" id="SimHei-20998"/>
       <path d="M 33.203125 60.546875 
Q 27.34375 68.359375 20.703125 73.828125 
Q 23.828125 76.171875 26.171875 78.90625 
L 39.453125 66.015625 
Q 37.5 64.453125 34.375 60.546875 
L 47.265625 60.546875 
L 47.265625 71.09375 
Q 47.265625 76.5625 46.875 80.078125 
L 55.078125 80.078125 
Q 54.6875 75.78125 54.6875 71.09375 
L 54.6875 60.546875 
L 67.578125 60.546875 
Q 64.453125 63.28125 62.5 64.84375 
Q 69.53125 71.484375 75 80.859375 
Q 78.125 78.125 82.421875 75.390625 
Q 79.6875 73.046875 76.75 69.921875 
Q 73.828125 66.796875 68.75 60.546875 
L 78.515625 60.546875 
Q 84.765625 60.546875 92.1875 60.9375 
L 92.1875 53.90625 
Q 84.765625 54.296875 78.515625 54.296875 
L 54.6875 54.296875 
L 54.6875 47.65625 
Q 54.6875 41.40625 55.078125 33.984375 
L 49.609375 33.984375 
Q 54.296875 32.421875 57.421875 31.25 
Q 55.859375 29.296875 55.078125 24.609375 
L 78.515625 24.609375 
Q 86.328125 24.609375 94.140625 25 
L 94.140625 17.96875 
Q 86.71875 18.359375 78.90625 18.359375 
L 57.421875 18.359375 
Q 63.28125 9.375 73.625 4.296875 
Q 83.984375 -0.78125 94.53125 -2.734375 
Q 91.40625 -5.46875 89.453125 -10.546875 
Q 77.734375 -7.03125 67.96875 -0.578125 
Q 58.203125 5.859375 51.5625 14.84375 
Q 47.65625 5.46875 37.890625 -0.78125 
Q 28.125 -7.03125 12.109375 -10.9375 
Q 10.15625 -6.640625 7.421875 -3.515625 
Q 21.484375 -1.5625 31.4375 3.515625 
Q 41.40625 8.59375 45.3125 18.359375 
L 25.390625 18.359375 
Q 16.015625 18.359375 8.203125 17.96875 
L 8.203125 25 
Q 14.84375 24.609375 25 24.609375 
L 47.265625 24.609375 
Q 48.046875 28.515625 48.4375 33.984375 
L 46.875 33.984375 
Q 47.265625 41.796875 47.265625 47.65625 
L 47.265625 51.953125 
Q 42.578125 45.3125 34.953125 39.84375 
Q 27.34375 34.375 14.453125 28.515625 
Q 13.28125 31.640625 9.765625 35.546875 
Q 18.359375 37.5 26.953125 42.765625 
Q 35.546875 48.046875 40.625 54.296875 
L 24.21875 54.296875 
Q 16.40625 54.296875 9.375 53.515625 
L 9.375 60.9375 
Q 16.796875 60.546875 24.21875 60.546875 
z
M 64.0625 53.90625 
Q 75.78125 46.875 90.625 36.71875 
Q 87.109375 33.203125 84.765625 30.078125 
Q 73.4375 39.84375 59.765625 48.046875 
Q 62.109375 50.78125 64.0625 53.90625 
z
" id="SimHei-31867"/>
       <path d="M 72.265625 42.96875 
Q 83.203125 42.96875 90.625 43.359375 
L 90.625 36.71875 
Q 82.8125 37.109375 72.265625 37.109375 
L 64.84375 37.109375 
Q 64.84375 33.203125 64.0625 25.78125 
L 78.515625 25.78125 
Q 87.109375 25.78125 95.3125 26.171875 
L 95.3125 19.140625 
Q 87.109375 19.53125 78.515625 19.53125 
L 66.40625 19.53125 
Q 71.484375 9.375 78.90625 4.484375 
Q 86.328125 -0.390625 95.703125 -1.953125 
Q 92.1875 -5.46875 90.234375 -9.765625 
Q 76.171875 -4.296875 69.53125 2.734375 
Q 62.890625 9.765625 60.9375 15.625 
Q 56.25 5.078125 48.828125 -0.96875 
Q 41.40625 -7.03125 31.640625 -10.546875 
Q 30.859375 -7.03125 26.953125 -3.125 
Q 38.671875 -1.171875 45.890625 6.828125 
Q 53.125 14.84375 54.296875 19.53125 
L 46.484375 19.53125 
Q 37.5 19.53125 31.640625 19.140625 
L 31.640625 26.171875 
Q 38.671875 25.78125 45.3125 25.78125 
L 56.25 25.78125 
Q 57.03125 31.640625 57.03125 37.109375 
L 51.953125 37.109375 
Q 41.796875 37.109375 34.765625 36.71875 
L 34.765625 43.359375 
Q 42.1875 42.96875 49.21875 42.96875 
z
M 84.765625 76.171875 
Q 84.375 71.09375 84.375 63.671875 
Q 84.375 56.25 84.765625 51.953125 
L 38.28125 51.953125 
Q 38.671875 55.859375 38.671875 63.28125 
Q 38.671875 70.703125 38.28125 76.171875 
L 84.765625 76.171875 
z
M 24.21875 51.953125 
Q 23.828125 46.875 23.828125 39.0625 
L 23.828125 10.546875 
L 29.6875 17.1875 
Q 31.640625 13.671875 34.765625 10.9375 
Q 26.171875 4.6875 19.53125 -5.078125 
Q 17.1875 -1.5625 12.890625 0.78125 
Q 16.015625 3.90625 16.40625 7.8125 
L 16.40625 45.3125 
Q 10.9375 45.3125 5.078125 44.921875 
L 5.078125 52.34375 
Q 8.59375 51.953125 11.71875 51.953125 
z
M 77.734375 57.8125 
L 77.734375 69.921875 
L 45.3125 69.921875 
L 45.3125 57.8125 
z
M 15.234375 80.078125 
Q 17.96875 78.125 29.6875 66.796875 
Q 26.953125 64.453125 24.21875 61.328125 
Q 17.96875 68.75 10.546875 74.609375 
Q 13.671875 77.734375 15.234375 80.078125 
z
" id="SimHei-35823"/>
       <path d="M 73.828125 77.734375 
Q 70.3125 73.828125 66.40625 66.796875 
L 75.78125 66.796875 
Q 85.15625 66.796875 91.015625 67.1875 
L 91.015625 60.15625 
Q 84.765625 60.546875 75.78125 60.546875 
L 51.171875 60.546875 
Q 50.390625 56.25 49.21875 51.171875 
L 70.703125 51.171875 
Q 79.296875 51.171875 86.328125 51.5625 
L 86.328125 44.53125 
Q 79.296875 44.921875 70.3125 44.921875 
L 47.65625 44.921875 
Q 46.484375 41.40625 44.53125 36.328125 
L 80.078125 36.328125 
Q 88.671875 36.328125 94.140625 36.71875 
L 94.140625 29.6875 
Q 89.0625 30.078125 80.46875 30.078125 
L 41.40625 30.078125 
Q 37.890625 24.21875 35.15625 20.3125 
Q 41.40625 19.921875 48.4375 19.921875 
L 70.703125 19.921875 
Q 77.734375 19.921875 83.59375 20.3125 
L 83.59375 13.28125 
Q 77.734375 13.671875 71.484375 13.671875 
L 61.328125 13.671875 
L 61.328125 -0.78125 
L 78.125 -0.78125 
Q 81.25 -0.78125 92.1875 -0.390625 
L 92.1875 -7.8125 
Q 82.421875 -7.421875 78.515625 -7.421875 
L 32.8125 -7.421875 
Q 26.5625 -7.421875 21.875 -7.8125 
L 21.875 -0.390625 
Q 27.734375 -0.78125 33.203125 -0.78125 
L 53.515625 -0.78125 
L 53.515625 13.671875 
L 48.4375 13.671875 
Q 41.015625 13.671875 33.984375 13.28125 
L 33.984375 18.75 
Q 30.078125 13.671875 23.234375 7.421875 
Q 16.40625 1.171875 9.765625 -3.90625 
Q 6.640625 -0.390625 3.125 2.34375 
Q 11.71875 7.421875 19.71875 14.453125 
Q 27.734375 21.484375 32.8125 30.078125 
L 20.703125 30.078125 
Q 11.71875 30.078125 5.859375 29.6875 
L 5.859375 36.71875 
Q 11.71875 36.328125 21.09375 36.328125 
L 36.328125 36.328125 
Q 38.28125 40.234375 39.84375 44.921875 
L 26.953125 44.921875 
Q 21.484375 44.921875 15.625 44.53125 
L 15.625 51.5625 
Q 23.4375 51.171875 26.5625 51.171875 
L 41.40625 51.171875 
Q 42.578125 55.859375 43.359375 60.546875 
L 23.4375 60.546875 
Q 17.1875 60.546875 10.15625 60.15625 
L 10.15625 67.1875 
Q 16.015625 66.796875 22.265625 66.796875 
L 35.546875 66.796875 
Q 32.421875 73.046875 28.90625 77.34375 
Q 31.640625 78.90625 35.15625 81.640625 
Q 38.28125 77.734375 42.578125 71.09375 
Q 39.453125 69.53125 36.328125 66.796875 
L 58.59375 66.796875 
Q 62.5 73.4375 64.84375 82.03125 
Q 68.75 79.6875 73.828125 77.734375 
z
" id="SimHei-24046"/>
      </defs>
      <use xlink:href="#SimHei-20998"/>
      <use x="100" xlink:href="#SimHei-31867"/>
      <use x="200" xlink:href="#SimHei-35823"/>
      <use x="300" xlink:href="#SimHei-24046"/>
     </g>
    </g>
   </g>
   <g id="patch_3">
    <path d="M 90 504 
L 90 69.12 
" style="fill:none;stroke:#000000;stroke-linecap:square;stroke-linejoin:miter;stroke-width:0.8;"/>
   </g>
   <g id="patch_4">
    <path d="M 648 504 
L 648 69.12 
" style="fill:none;stroke:#000000;stroke-linecap:square;stroke-linejoin:miter;stroke-width:0.8;"/>
   </g>
   <g id="patch_5">
    <path d="M 90 504 
L 648 504 
" style="fill:none;stroke:#000000;stroke-linecap:square;stroke-linejoin:miter;stroke-width:0.8;"/>
   </g>
   <g id="patch_6">
    <path d="M 90 69.12 
L 648 69.12 
" style="fill:none;stroke:#000000;stroke-linecap:square;stroke-linejoin:miter;stroke-width:0.8;"/>
   </g>
   <g id="text_22">
    <!-- 帕累托前沿 -->
    <g transform="translate(334 63.12)scale(0.14 -0.14)">
     <defs>
      <path d="M 75.78125 79.296875 
Q 73.046875 76.953125 70.3125 65.234375 
L 92.578125 65.234375 
Q 92.1875 60.546875 92.1875 48.828125 
L 92.1875 8.203125 
Q 92.1875 1.953125 92.578125 -7.03125 
L 85.546875 -7.03125 
L 85.546875 3.515625 
L 56.640625 3.515625 
L 56.640625 -7.8125 
L 49.609375 -7.8125 
Q 50 -1.171875 50 6.25 
L 50 49.21875 
Q 50 59.375 49.609375 65.234375 
L 62.109375 65.234375 
Q 63.671875 69.140625 65.625 81.25 
Q 68.75 80.46875 75.78125 79.296875 
z
M 30.46875 17.578125 
Q 37.109375 16.015625 36.328125 19.921875 
L 36.328125 57.8125 
L 28.515625 57.8125 
L 28.515625 7.421875 
Q 28.515625 -1.171875 28.90625 -8.59375 
L 21.09375 -8.59375 
Q 21.484375 -0.390625 21.484375 7.421875 
L 21.484375 57.8125 
L 13.671875 57.8125 
L 13.671875 6.640625 
L 6.25 6.640625 
Q 6.640625 15.625 6.640625 23.046875 
L 6.640625 50 
Q 6.25 57.8125 6.25 63.671875 
L 21.484375 63.671875 
L 21.484375 69.921875 
Q 21.484375 75.390625 21.09375 80.46875 
L 29.296875 80.46875 
Q 28.515625 75.78125 28.515625 69.921875 
L 28.515625 63.671875 
L 43.75 63.671875 
Q 43.359375 57.8125 43.359375 50.390625 
L 43.359375 17.1875 
Q 43.359375 12.890625 41.015625 11.515625 
Q 38.671875 10.15625 33.203125 9.375 
Q 33.203125 13.671875 30.46875 17.578125 
z
M 85.546875 9.375 
L 85.546875 31.640625 
L 56.640625 31.640625 
L 56.640625 9.375 
z
M 85.546875 37.5 
L 85.546875 59.375 
L 56.640625 59.375 
L 56.640625 37.5 
z
" id="SimHei-24085"/>
      <path d="M 85.546875 78.125 
Q 85.15625 71.875 85.15625 62.109375 
Q 85.15625 52.34375 85.546875 46.09375 
L 73.046875 46.09375 
Q 75.78125 43.359375 79.296875 40.625 
Q 75 39.453125 66.203125 35.546875 
Q 57.421875 31.640625 50.96875 28.703125 
Q 44.53125 25.78125 37.5 22.265625 
Q 60.15625 23.828125 72.65625 24.609375 
Q 69.140625 26.953125 65.625 28.90625 
Q 68.359375 31.25 70.3125 33.984375 
Q 80.078125 28.125 92.1875 20.3125 
Q 89.84375 17.578125 87.109375 14.0625 
Q 83.984375 16.796875 79.6875 19.53125 
Q 66.40625 18.359375 54.296875 17.578125 
L 54.296875 0.78125 
Q 54.296875 -5.46875 50.1875 -7.21875 
Q 46.09375 -8.984375 40.625 -9.375 
Q 40.234375 -5.859375 37.109375 -0.78125 
Q 43.75 -1.171875 45.3125 -0.390625 
Q 46.875 0.390625 46.875 1.953125 
L 46.875 16.796875 
Q 37.5 16.40625 31.046875 15.8125 
Q 24.609375 15.234375 13.28125 13.671875 
Q 12.109375 17.578125 10.9375 21.09375 
Q 17.96875 21.875 24.609375 23.625 
Q 31.25 25.390625 47.265625 33.203125 
Q 27.734375 31.640625 19.53125 30.078125 
Q 18.75 34.375 17.1875 37.109375 
Q 20.703125 37.109375 27.140625 39.640625 
Q 33.59375 42.1875 38.671875 46.09375 
L 14.84375 46.09375 
Q 15.234375 52.734375 15.234375 62.109375 
Q 15.234375 71.875 14.84375 78.125 
L 85.546875 78.125 
z
M 37.890625 8.203125 
Q 34.375 6.25 27.53125 2.140625 
Q 20.703125 -1.953125 13.28125 -6.640625 
Q 10.9375 -3.515625 7.8125 -0.390625 
Q 13.28125 1.953125 19.53125 5.65625 
Q 25.78125 9.375 31.640625 14.0625 
Q 33.59375 11.328125 37.890625 8.203125 
z
M 46.484375 64.0625 
L 46.484375 72.65625 
L 22.65625 72.65625 
L 22.65625 64.0625 
z
M 77.734375 64.0625 
L 77.734375 72.65625 
L 53.90625 72.65625 
L 53.90625 64.0625 
z
M 66.796875 13.28125 
Q 74.21875 10.15625 78.90625 7.8125 
L 91.40625 1.5625 
Q 88.671875 -1.953125 87.109375 -5.859375 
Q 80.46875 -1.5625 74.609375 1.5625 
Q 68.75 4.6875 63.28125 7.03125 
Q 65.625 10.546875 66.796875 13.28125 
z
M 46.484375 51.171875 
L 46.484375 58.59375 
L 22.65625 58.59375 
L 22.65625 51.171875 
z
M 77.734375 51.171875 
L 77.734375 58.59375 
L 53.90625 58.59375 
L 53.90625 51.171875 
z
M 57.8125 38.671875 
Q 65.625 42.1875 71.484375 46.09375 
L 50.390625 46.09375 
Q 45.3125 42.96875 35.9375 37.890625 
Q 48.046875 38.28125 57.8125 38.671875 
z
" id="SimHei-32047"/>
      <path d="M 94.140625 38.28125 
Q 89.453125 37.109375 66.40625 33.203125 
L 66.40625 6.640625 
Q 66.40625 1.171875 72.65625 1.171875 
L 81.640625 1.171875 
Q 84.765625 1.171875 86.125 2.53125 
Q 87.5 3.90625 88.28125 12.5 
Q 92.1875 9.375 96.484375 8.59375 
Q 95.3125 0 92.765625 -2.734375 
Q 90.234375 -5.46875 84.375 -5.46875 
L 67.96875 -5.46875 
Q 59.765625 -5.46875 58.59375 1.5625 
L 58.59375 31.25 
Q 48.828125 29.6875 42.578125 28.125 
L 41.015625 35.9375 
Q 46.875 36.328125 58.59375 38.28125 
L 58.59375 64.0625 
Q 48.828125 62.890625 43.359375 61.71875 
Q 42.1875 65.625 40.625 69.140625 
Q 46.875 69.53125 59.5625 71.09375 
Q 72.265625 72.65625 87.109375 77.34375 
Q 88.28125 73.4375 91.40625 69.921875 
Q 85.546875 68.359375 66.40625 65.234375 
L 66.40625 39.84375 
Q 87.5 43.75 93.75 45.3125 
Q 94.140625 41.40625 94.140625 38.28125 
z
M 20.3125 56.640625 
Q 20.3125 69.921875 19.921875 78.90625 
L 28.90625 78.90625 
Q 28.125 69.53125 28.125 56.640625 
Q 36.328125 56.640625 41.40625 57.03125 
L 41.40625 49.609375 
Q 36.328125 50 28.125 50 
L 28.125 34.375 
Q 33.203125 37.109375 39.0625 40.234375 
L 39.84375 33.203125 
Q 36.328125 31.640625 28.125 26.953125 
L 28.125 -1.953125 
Q 27.734375 -5.078125 24.796875 -6.828125 
Q 21.875 -8.59375 12.5 -9.375 
Q 11.71875 -4.6875 9.765625 -0.78125 
Q 16.015625 -0.78125 18.15625 -0.390625 
Q 20.3125 0 20.3125 3.515625 
L 20.3125 23.4375 
Q 10.9375 18.75 7.421875 16.015625 
Q 6.25 20.3125 3.90625 24.21875 
Q 8.203125 25.390625 20.3125 30.859375 
L 20.3125 50 
Q 11.328125 50 5.078125 49.609375 
L 5.078125 57.03125 
Q 10.9375 56.640625 20.3125 56.640625 
z
" id="SimHei-25176"/>
      <path d="M 32.421875 -1.5625 
Q 37.5 -1.5625 39.640625 -1.359375 
Q 41.796875 -1.171875 41.796875 1.5625 
L 41.796875 13.671875 
L 20.703125 13.671875 
L 20.703125 -10.15625 
L 12.5 -10.15625 
Q 13.28125 -3.125 13.28125 5.46875 
L 13.28125 36.71875 
Q 13.28125 44.53125 12.890625 51.5625 
L 49.609375 51.5625 
Q 49.21875 44.921875 49.21875 37.109375 
L 49.21875 -2.34375 
Q 49.21875 -6.25 46.09375 -7.421875 
Q 42.96875 -8.59375 35.546875 -9.765625 
Q 34.375 -5.46875 32.421875 -1.5625 
z
M 77.34375 79.296875 
Q 75.390625 77.734375 73.234375 74.21875 
Q 71.09375 70.703125 68.359375 66.015625 
L 84.375 66.015625 
Q 89.84375 66.015625 96.484375 66.40625 
L 96.484375 58.984375 
Q 90.234375 59.765625 82.8125 59.765625 
L 21.09375 59.765625 
Q 10.9375 59.765625 3.90625 58.984375 
L 3.90625 66.40625 
Q 12.109375 66.015625 21.09375 66.015625 
L 60.546875 66.015625 
Q 67.1875 78.515625 67.96875 82.8125 
Q 72.265625 80.46875 77.34375 79.296875 
z
M 68.359375 -1.171875 
Q 75.390625 -1.5625 77.140625 -1.171875 
Q 78.90625 -0.78125 78.90625 2.34375 
L 78.90625 42.96875 
Q 78.90625 47.65625 78.515625 53.125 
L 86.71875 53.125 
Q 86.328125 48.046875 86.328125 42.96875 
L 86.328125 -0.390625 
Q 86.328125 -5.46875 83.78125 -7.03125 
Q 81.25 -8.59375 71.875 -9.375 
Q 71.09375 -4.296875 68.359375 -1.171875 
z
M 58.984375 8.984375 
Q 59.375 14.84375 59.375 19.140625 
L 59.375 37.109375 
Q 59.375 43.359375 58.984375 48.046875 
L 67.1875 48.046875 
Q 66.796875 43.359375 66.796875 37.109375 
L 66.796875 19.53125 
Q 66.796875 13.671875 67.1875 8.984375 
z
M 41.796875 35.15625 
L 41.796875 45.703125 
L 20.703125 45.703125 
L 20.703125 35.15625 
z
M 41.796875 19.53125 
L 41.796875 29.296875 
L 20.703125 29.296875 
L 20.703125 19.53125 
z
M 34.765625 67.1875 
Q 33.203125 71.484375 27.34375 78.90625 
Q 31.640625 80.859375 34.375 82.8125 
Q 39.84375 75.78125 42.578125 71.09375 
Q 39.0625 69.53125 34.765625 67.1875 
z
" id="SimHei-21069"/>
      <path d="M 88.671875 32.421875 
Q 88.28125 25.390625 88.28125 11.71875 
Q 88.28125 -1.5625 88.671875 -10.15625 
L 80.859375 -10.15625 
L 80.859375 -1.171875 
L 49.609375 -1.171875 
L 49.609375 -9.375 
L 41.796875 -9.375 
Q 42.1875 -0.390625 42.1875 12.5 
Q 42.1875 25.78125 41.796875 32.421875 
L 88.671875 32.421875 
z
M 80.859375 75.78125 
Q 80.46875 69.921875 80.46875 64.453125 
L 80.46875 52.734375 
Q 80.859375 48.828125 84.171875 48.4375 
Q 87.5 48.046875 96.09375 49.609375 
Q 94.53125 45.703125 94.53125 41.40625 
L 81.25 41.40625 
Q 73.046875 41.40625 73.046875 47.65625 
L 73.046875 69.140625 
L 54.296875 69.140625 
Q 54.296875 60.15625 53.3125 54.09375 
Q 52.34375 48.046875 49.609375 43.546875 
Q 46.875 39.0625 38.671875 33.984375 
Q 37.109375 36.71875 32.421875 39.453125 
Q 44.53125 44.921875 45.890625 54.484375 
Q 47.265625 64.0625 46.484375 75.78125 
L 80.859375 75.78125 
z
M 80.859375 5.859375 
L 80.859375 25.390625 
L 49.609375 25.390625 
L 49.609375 5.859375 
z
M 30.078125 25.78125 
Q 26.171875 17.578125 21.671875 7.03125 
Q 17.1875 -3.515625 14.84375 -7.8125 
Q 12.5 -5.859375 6.25 -3.125 
Q 10.15625 1.171875 15.625 11.71875 
Q 21.09375 22.265625 23.4375 30.078125 
Q 25.78125 28.125 30.078125 25.78125 
z
M 9.375 55.078125 
Q 17.96875 50.78125 28.125 44.53125 
Q 25.390625 41.40625 23.4375 37.890625 
Q 15.625 44.140625 5.078125 48.4375 
Q 7.03125 51.171875 9.375 55.078125 
z
M 15.625 79.296875 
Q 22.65625 74.21875 31.640625 66.40625 
Q 28.515625 64.0625 26.5625 60.546875 
Q 17.96875 69.140625 10.546875 73.828125 
Q 12.890625 76.171875 15.625 79.296875 
z
" id="SimHei-27839"/>
     </defs>
     <use xlink:href="#SimHei-24085"/>
     <use x="100" xlink:href="#SimHei-32047"/>
     <use x="200" xlink:href="#SimHei-25176"/>
     <use x="300" xlink:href="#SimHei-21069"/>
     <use x="400" xlink:href="#SimHei-27839"/>
    </g>
   </g>
   <g id="legend_1">
    <g id="patch_7">
     <path d="M 457.6 187.92 
L 636.8 187.92 
Q 640 187.92 640 184.72 
L 640 80.32 
Q 640 77.12 636.8 77.12 
L 457.6 77.12 
Q 454.4 77.12 454.4 80.32 
L 454.4 184.72 
Q 454.4 187.92 457.6 187.92 
z
" style="fill:#ffffff;opacity:0.8;stroke:#cccccc;stroke-linejoin:miter;"/>
    </g>
    <g id="PathCollection_6">
     <g>
      <use style="fill:#1f77b4;stroke:#1f77b4;" x="476.8" xlink:href="#mf77d046b5f" y="90.52"/>
     </g>
    </g>
    <g id="text_23">
     <!-- INSGA-II-XGBoost -->
     <g transform="translate(505.6 94.72)scale(0.16 -0.16)">
      <defs>
       <path d="M 28.90625 1.953125 
L 19.921875 1.953125 
L 19.921875 68.75 
L 28.90625 68.75 
z
" id="SimHei-73"/>
       <path d="M 44.53125 1.953125 
L 34.765625 1.953125 
L 13.28125 50.390625 
L 12.890625 50.390625 
L 12.890625 1.953125 
L 3.90625 1.953125 
L 3.90625 68.75 
L 13.671875 68.75 
L 35.15625 20.3125 
L 35.546875 20.3125 
L 35.546875 68.75 
L 44.53125 68.75 
z
" id="SimHei-78"/>
       <path d="M 45.3125 20.703125 
Q 45.3125 11.71875 39.640625 6.4375 
Q 33.984375 1.171875 24.21875 1.171875 
Q 14.453125 1.171875 8.984375 6.640625 
Q 3.515625 12.109375 3.515625 20.3125 
L 3.515625 23.046875 
L 12.5 23.046875 
L 12.5 20.703125 
Q 12.5 14.84375 16.015625 11.71875 
Q 19.53125 8.59375 24.21875 8.59375 
Q 30.46875 8.59375 33.390625 11.90625 
Q 36.328125 15.234375 36.328125 19.921875 
Q 36.328125 23.828125 32.8125 27.140625 
Q 29.296875 30.46875 22.65625 33.203125 
Q 13.28125 36.71875 9.171875 41.015625 
Q 5.078125 45.3125 5.078125 51.171875 
Q 5.078125 59.375 10.734375 64.453125 
Q 16.40625 69.53125 24.21875 69.53125 
Q 34.375 69.53125 38.859375 63.46875 
Q 43.359375 57.421875 43.359375 50.390625 
L 34.375 50.390625 
Q 34.765625 54.6875 32.03125 58.203125 
Q 29.296875 61.71875 24.21875 61.71875 
Q 19.53125 61.71875 16.796875 59.171875 
Q 14.0625 56.640625 14.0625 52.34375 
Q 14.0625 48.828125 16.203125 46.28125 
Q 18.359375 43.75 27.34375 40.234375 
Q 35.9375 36.71875 40.625 31.828125 
Q 45.3125 26.953125 45.3125 20.703125 
z
" id="SimHei-83"/>
       <path d="M 44.53125 1.171875 
L 37.890625 1.171875 
L 36.71875 6.640625 
Q 35.15625 4.296875 31.828125 2.734375 
Q 28.515625 1.171875 24.609375 1.171875 
Q 16.40625 1.171875 9.953125 8.78125 
Q 3.515625 16.40625 3.515625 33.203125 
Q 3.515625 51.5625 9.375 60.546875 
Q 15.234375 69.53125 25.390625 69.53125 
Q 34.375 69.53125 39.453125 62.890625 
Q 44.53125 56.25 44.53125 45.703125 
L 35.9375 45.703125 
Q 35.9375 53.90625 33.203125 58 
Q 30.46875 62.109375 25.390625 62.109375 
Q 19.140625 62.109375 16.015625 55.65625 
Q 12.890625 49.21875 12.890625 33.984375 
Q 12.890625 19.53125 16.796875 14.0625 
Q 20.703125 8.59375 25.78125 8.59375 
Q 30.859375 8.59375 33.78125 12.296875 
Q 36.71875 16.015625 36.71875 23.828125 
L 36.71875 28.125 
L 24.609375 28.125 
L 24.609375 35.546875 
L 44.53125 35.546875 
z
" id="SimHei-71"/>
       <path d="M 48.046875 1.953125 
L 38.671875 1.953125 
L 33.203125 22.65625 
L 16.015625 22.65625 
L 10.546875 1.953125 
L 1.171875 1.953125 
L 20.703125 69.53125 
L 28.515625 69.53125 
z
M 31.25 30.078125 
L 25 53.90625 
L 24.21875 53.90625 
L 17.96875 30.078125 
z
" id="SimHei-65"/>
       <path d="M 46.484375 33.203125 
L 1.953125 33.203125 
L 1.953125 39.453125 
L 46.484375 39.453125 
z
" id="SimHei-45"/>
       <path d="M 46.875 1.953125 
L 37.5 1.953125 
L 24.21875 29.296875 
L 10.9375 1.953125 
L 1.5625 1.953125 
L 19.921875 37.109375 
L 3.515625 68.75 
L 12.890625 68.75 
L 24.21875 44.53125 
L 35.546875 68.75 
L 44.921875 68.75 
L 28.515625 37.109375 
z
" id="SimHei-88"/>
       <path d="M 46.09375 21.875 
Q 46.09375 10.546875 39.84375 6.25 
Q 33.59375 1.953125 23.828125 1.953125 
L 4.296875 1.953125 
L 4.296875 68.75 
L 24.609375 68.75 
Q 34.375 68.75 39.25 63.671875 
Q 44.140625 58.59375 44.140625 51.5625 
Q 44.140625 44.53125 40.8125 41.203125 
Q 37.5 37.890625 33.984375 36.71875 
Q 38.671875 35.546875 42.375 31.828125 
Q 46.09375 28.125 46.09375 21.875 
z
M 35.15625 51.5625 
Q 35.15625 56.640625 32.21875 58.984375 
Q 29.296875 61.328125 25 61.328125 
L 13.28125 61.328125 
L 13.28125 40.625 
L 24.609375 40.625 
Q 28.90625 40.625 32.03125 43.15625 
Q 35.15625 45.703125 35.15625 51.5625 
z
M 36.71875 21.875 
Q 36.71875 28.125 32.609375 30.65625 
Q 28.515625 33.203125 23.4375 33.203125 
L 13.28125 33.203125 
L 13.28125 9.375 
L 22.265625 9.375 
Q 29.296875 9.375 33 12.109375 
Q 36.71875 14.84375 36.71875 21.875 
z
" id="SimHei-66"/>
       <path d="M 45.703125 23.828125 
Q 45.703125 13.671875 39.453125 7.421875 
Q 33.203125 1.171875 24.609375 1.171875 
Q 16.015625 1.171875 9.765625 7.421875 
Q 3.515625 13.671875 3.515625 23.828125 
Q 3.515625 33.984375 9.765625 40.234375 
Q 16.015625 46.484375 24.609375 46.484375 
Q 33.203125 46.484375 39.453125 40.234375 
Q 45.703125 33.984375 45.703125 23.828125 
z
M 37.109375 23.828125 
Q 37.109375 31.640625 33.203125 35.546875 
Q 29.296875 39.453125 24.609375 39.453125 
Q 19.921875 39.453125 16.015625 35.546875 
Q 12.109375 31.640625 12.109375 23.828125 
Q 12.109375 16.015625 16.015625 12.109375 
Q 19.921875 8.203125 24.609375 8.203125 
Q 29.296875 8.203125 33.203125 12.109375 
Q 37.109375 16.015625 37.109375 23.828125 
z
" id="SimHei-111"/>
       <path d="M 42.96875 14.0625 
Q 42.96875 7.8125 38.078125 4.484375 
Q 33.203125 1.171875 25.78125 1.171875 
Q 16.40625 1.171875 11.328125 4.875 
Q 6.25 8.59375 6.25 15.625 
L 14.0625 15.625 
Q 14.0625 10.9375 17.375 9.375 
Q 20.703125 7.8125 25.390625 7.8125 
Q 30.078125 7.8125 32.421875 9.5625 
Q 34.765625 11.328125 34.765625 14.0625 
Q 34.765625 16.015625 32.8125 17.96875 
Q 30.859375 19.921875 23.046875 21.09375 
Q 14.0625 22.265625 10.734375 25.578125 
Q 7.421875 28.90625 7.421875 34.375 
Q 7.421875 39.0625 11.90625 42.765625 
Q 16.40625 46.484375 25 46.484375 
Q 32.8125 46.484375 37.296875 42.96875 
Q 41.796875 39.453125 41.796875 33.59375 
L 33.984375 33.59375 
Q 33.984375 37.109375 31.4375 38.46875 
Q 28.90625 39.84375 25 39.84375 
Q 19.921875 39.84375 17.765625 38.078125 
Q 15.625 36.328125 15.625 33.984375 
Q 15.625 31.25 17.578125 29.6875 
Q 19.53125 28.125 25.78125 27.34375 
Q 35.9375 25.78125 39.453125 22.453125 
Q 42.96875 19.140625 42.96875 14.0625 
z
" id="SimHei-115"/>
       <path d="M 42.96875 3.125 
Q 41.015625 2.34375 38.46875 1.75 
Q 35.9375 1.171875 31.640625 1.171875 
Q 24.609375 1.171875 20.3125 5.078125 
Q 16.015625 8.984375 16.015625 16.015625 
L 16.015625 39.453125 
L 2.734375 39.453125 
L 2.734375 45.703125 
L 16.015625 45.703125 
L 16.015625 60.9375 
L 23.828125 60.9375 
L 23.828125 45.703125 
L 39.84375 45.703125 
L 39.84375 39.453125 
L 23.828125 39.453125 
L 23.828125 15.625 
Q 23.828125 12.5 25.390625 10.34375 
Q 26.953125 8.203125 31.25 8.203125 
Q 35.546875 8.203125 38.28125 8.984375 
Q 41.015625 9.765625 42.96875 10.9375 
z
" id="SimHei-116"/>
      </defs>
      <use xlink:href="#SimHei-73"/>
      <use x="50" xlink:href="#SimHei-78"/>
      <use x="100" xlink:href="#SimHei-83"/>
      <use x="150" xlink:href="#SimHei-71"/>
      <use x="200" xlink:href="#SimHei-65"/>
      <use x="250" xlink:href="#SimHei-45"/>
      <use x="300" xlink:href="#SimHei-73"/>
      <use x="350" xlink:href="#SimHei-73"/>
      <use x="400" xlink:href="#SimHei-45"/>
      <use x="450" xlink:href="#SimHei-88"/>
      <use x="500" xlink:href="#SimHei-71"/>
      <use x="550" xlink:href="#SimHei-66"/>
      <use x="600" xlink:href="#SimHei-111"/>
      <use x="650" xlink:href="#SimHei-111"/>
      <use x="700" xlink:href="#SimHei-115"/>
      <use x="750" xlink:href="#SimHei-116"/>
     </g>
    </g>
    <g id="PathCollection_7">
     <g>
      <use style="fill:#ff7f0e;stroke:#ff7f0e;stroke-width:1.5;" x="476.8" xlink:href="#mf4295b0897" y="111.72"/>
     </g>
    </g>
    <g id="text_24">
     <!-- NSGA-II-XGBoost -->
     <g transform="translate(505.6 115.92)scale(0.16 -0.16)">
      <use xlink:href="#SimHei-78"/>
      <use x="50" xlink:href="#SimHei-83"/>
      <use x="100" xlink:href="#SimHei-71"/>
      <use x="150" xlink:href="#SimHei-65"/>
      <use x="200" xlink:href="#SimHei-45"/>
      <use x="250" xlink:href="#SimHei-73"/>
      <use x="300" xlink:href="#SimHei-73"/>
      <use x="350" xlink:href="#SimHei-45"/>
      <use x="400" xlink:href="#SimHei-88"/>
      <use x="450" xlink:href="#SimHei-71"/>
      <use x="500" xlink:href="#SimHei-66"/>
      <use x="550" xlink:href="#SimHei-111"/>
      <use x="600" xlink:href="#SimHei-111"/>
      <use x="650" xlink:href="#SimHei-115"/>
      <use x="700" xlink:href="#SimHei-116"/>
     </g>
    </g>
    <g id="PathCollection_8">
     <g>
      <use style="fill:#2ca02c;stroke:#2ca02c;" x="476.8" xlink:href="#mba4ba2f313" y="132.92"/>
     </g>
    </g>
    <g id="text_25">
     <!-- NSGA-III-XGBoost -->
     <g transform="translate(505.6 137.12)scale(0.16 -0.16)">
      <use xlink:href="#SimHei-78"/>
      <use x="50" xlink:href="#SimHei-83"/>
      <use x="100" xlink:href="#SimHei-71"/>
      <use x="150" xlink:href="#SimHei-65"/>
      <use x="200" xlink:href="#SimHei-45"/>
      <use x="250" xlink:href="#SimHei-73"/>
      <use x="300" xlink:href="#SimHei-73"/>
      <use x="350" xlink:href="#SimHei-73"/>
      <use x="400" xlink:href="#SimHei-45"/>
      <use x="450" xlink:href="#SimHei-88"/>
      <use x="500" xlink:href="#SimHei-71"/>
      <use x="550" xlink:href="#SimHei-66"/>
      <use x="600" xlink:href="#SimHei-111"/>
      <use x="650" xlink:href="#SimHei-111"/>
      <use x="700" xlink:href="#SimHei-115"/>
      <use x="750" xlink:href="#SimHei-116"/>
     </g>
    </g>
    <g id="PathCollection_9">
     <g>
      <use style="fill:#d62728;stroke:#d62728;" x="476.8" xlink:href="#m3e2b007347" y="154.12"/>
     </g>
    </g>
    <g id="text_26">
     <!-- AWGA-XGBoost -->
     <g transform="translate(505.6 158.32)scale(0.16 -0.16)">
      <defs>
       <path d="M 48.046875 68.75 
L 39.453125 1.171875 
L 31.640625 1.171875 
L 24.609375 51.171875 
L 23.828125 51.171875 
L 16.796875 1.171875 
L 8.984375 1.171875 
L 0.390625 68.75 
L 8.984375 68.75 
L 13.28125 26.171875 
L 14.0625 26.171875 
L 19.921875 68.75 
L 28.515625 68.75 
L 34.375 26.171875 
L 35.15625 26.171875 
L 39.453125 68.75 
z
" id="SimHei-87"/>
      </defs>
      <use xlink:href="#SimHei-65"/>
      <use x="50" xlink:href="#SimHei-87"/>
      <use x="100" xlink:href="#SimHei-71"/>
      <use x="150" xlink:href="#SimHei-65"/>
      <use x="200" xlink:href="#SimHei-45"/>
      <use x="250" xlink:href="#SimHei-88"/>
      <use x="300" xlink:href="#SimHei-71"/>
      <use x="350" xlink:href="#SimHei-66"/>
      <use x="400" xlink:href="#SimHei-111"/>
      <use x="450" xlink:href="#SimHei-111"/>
      <use x="500" xlink:href="#SimHei-115"/>
      <use x="550" xlink:href="#SimHei-116"/>
     </g>
    </g>
    <g id="PathCollection_10">
     <g>
      <use style="fill:#9467bd;stroke:#9467bd;" x="476.8" xlink:href="#mca1dcb1849" y="175.32"/>
     </g>
    </g>
    <g id="text_27">
     <!-- RVEA-XGBoost -->
     <g transform="translate(505.6 179.52)scale(0.16 -0.16)">
      <defs>
       <path d="M 46.875 1.953125 
L 37.5 1.953125 
L 23.4375 30.859375 
L 13.28125 30.859375 
L 13.28125 1.953125 
L 4.296875 1.953125 
L 4.296875 68.75 
L 23.828125 68.75 
Q 33.203125 68.75 39.0625 64.25 
Q 44.921875 59.765625 44.921875 49.609375 
Q 44.921875 41.796875 41.015625 37.5 
Q 37.109375 33.203125 32.03125 32.03125 
z
M 35.9375 49.609375 
Q 35.9375 55.078125 32.609375 58.203125 
Q 29.296875 61.328125 21.875 61.328125 
L 13.28125 61.328125 
L 13.28125 38.28125 
L 24.21875 38.28125 
Q 28.90625 38.28125 32.421875 40.8125 
Q 35.9375 43.359375 35.9375 49.609375 
z
" id="SimHei-82"/>
       <path d="M 47.65625 68.75 
L 28.125 1.171875 
L 20.3125 1.171875 
L 0.78125 68.75 
L 10.15625 68.75 
L 23.828125 17.578125 
L 24.609375 17.578125 
L 38.28125 68.75 
z
" id="SimHei-86"/>
       <path d="M 45.3125 1.953125 
L 5.46875 1.953125 
L 5.46875 68.75 
L 43.359375 68.75 
L 43.359375 61.328125 
L 14.453125 61.328125 
L 14.453125 40.625 
L 41.015625 40.625 
L 41.015625 33.203125 
L 14.453125 33.203125 
L 14.453125 9.375 
L 45.3125 9.375 
z
" id="SimHei-69"/>
      </defs>
      <use xlink:href="#SimHei-82"/>
      <use x="50" xlink:href="#SimHei-86"/>
      <use x="100" xlink:href="#SimHei-69"/>
      <use x="150" xlink:href="#SimHei-65"/>
      <use x="200" xlink:href="#SimHei-45"/>
      <use x="250" xlink:href="#SimHei-88"/>
      <use x="300" xlink:href="#SimHei-71"/>
      <use x="350" xlink:href="#SimHei-66"/>
      <use x="400" xlink:href="#SimHei-111"/>
      <use x="450" xlink:href="#SimHei-111"/>
      <use x="500" xlink:href="#SimHei-115"/>
      <use x="550" xlink:href="#SimHei-116"/>
     </g>
    </g>
   </g>
  </g>
 </g>
 <defs>
  <clipPath id="p235175afc6">
   <rect height="434.88" width="558" x="90" y="69.12"/>
  </clipPath>
 </defs>
</svg>
